<?xml version="1.0" standalone="no"?>
<!DOCTYPE svg PUBLIC "-//W3C//DTD SVG 20010904//EN"
 "http://www.w3.org/TR/2001/REC-SVG-20010904/DTD/svg10.dtd">
<svg version="1.0" xmlns="http://www.w3.org/2000/svg"
 width="2100.000000pt" height="2100.000000pt" viewBox="0 0 2100.000000 2100.000000"
 preserveAspectRatio="xMidYMid meet">

<g transform="translate(0.000000,2100.000000) scale(0.100000,-0.100000)"
fill="#000000" stroke="none">
<path d="M13054 17404 c-9 -4 -9 -14 -1 -39 8 -27 13 -32 26 -25 42 24 43 27
32 49 -11 20 -32 25 -57 15z"/>
<path d="M12625 17380 c-3 -6 -3 -19 0 -30 5 -16 12 -18 38 -13 41 8 41 7 27
32 -11 22 -54 29 -65 11z"/>
<path d="M18176 17343 c8 -35 10 -37 23 -28 6 3 11 17 11 31 0 17 -5 24 -20
24 -17 0 -19 -4 -14 -27z"/>
<path d="M12193 17348 c2 -7 9 -13 15 -12 7 1 21 2 33 3 31 2 12 21 -22 21
-20 0 -29 -4 -26 -12z"/>
<path d="M17754 17354 c-6 -3 -9 -16 -6 -29 4 -26 17 -29 60 -17 21 7 22 8 7
30 -15 21 -36 26 -61 16z"/>
<path d="M13257 17332 c-21 -13 -25 -21 -20 -42 10 -41 9 -41 80 -15 2 1 -5
17 -15 37 -18 35 -19 35 -45 20z"/>
<path d="M11777 17333 c-15 -14 -6 -24 16 -18 35 11 44 25 16 25 -14 0 -29 -3
-32 -7z"/>
<path d="M12798 17323 c-27 -4 -28 -5 -13 -33 8 -16 15 -38 15 -50 0 -20 0
-20 33 2 17 13 34 24 36 26 3 1 -1 8 -7 14 -7 7 -12 20 -12 30 0 10 -6 17 -12
17 -7 -1 -25 -4 -40 -6z"/>
<path d="M17320 17317 c0 -22 11 -26 36 -15 33 15 30 28 -6 28 -18 0 -30 -5
-30 -13z"/>
<path d="M12381 17309 c-15 -6 -21 -14 -17 -25 3 -9 6 -25 6 -36 0 -17 4 -19
33 -13 17 4 33 8 35 10 3 2 -27 75 -31 74 -1 0 -13 -5 -26 -10z"/>
<path d="M11325 17301 c-10 -17 11 -21 31 -6 18 14 18 14 -3 15 -12 0 -24 -4
-28 -9z"/>
<path d="M11520 17297 c-14 -6 -27 -12 -29 -13 -2 -2 3 -17 10 -34 12 -27 18
-31 43 -26 16 4 31 7 32 9 4 4 -21 77 -26 76 -3 0 -16 -5 -30 -12z"/>
<path d="M16880 17284 l0 -25 29 17 c34 20 32 34 -5 34 -19 0 -24 -5 -24 -26z"/>
<path d="M11952 17293 c-20 -4 -22 -8 -16 -41 4 -20 8 -38 9 -40 1 -1 16 3 33
9 33 11 40 23 22 34 -5 3 -10 15 -10 26 0 10 -3 18 -7 18 -5 -1 -18 -4 -31 -6z"/>
<path d="M17927 17293 c-22 -4 -27 -8 -22 -21 4 -9 10 -25 12 -35 4 -12 11
-16 22 -11 9 3 23 8 32 11 14 4 15 9 6 34 -6 16 -14 28 -17 28 -3 -1 -18 -4
-33 -6z"/>
<path d="M16460 17280 c-21 -13 -10 -18 27 -13 18 3 30 9 27 14 -7 12 -35 11
-54 -1z"/>
<path d="M11074 17273 c-18 -4 -19 -7 -10 -47 l10 -43 28 16 c15 9 28 19 28
23 0 16 -20 58 -27 57 -5 -1 -17 -4 -29 -6z"/>
<path d="M17079 17264 c-25 -12 -26 -16 -16 -52 10 -37 11 -38 42 -28 l31 10
-14 40 c-7 23 -14 42 -15 43 -1 0 -14 -5 -28 -13z"/>
<path d="M17502 17273 c-16 -3 -22 -9 -18 -20 3 -8 9 -26 12 -39 3 -13 7 -24
9 -24 1 0 16 5 33 11 l31 11 -16 34 c-9 19 -19 33 -22 33 -3 -1 -16 -4 -29 -6z"/>
<path d="M10642 17251 c-9 -5 -11 -17 -6 -35 6 -24 10 -27 33 -21 32 8 30 5
24 38 -5 27 -25 35 -51 18z"/>
<path d="M12993 17246 c-31 -10 -31 -10 -26 -62 5 -47 3 -55 -20 -78 -39 -39
-96 -36 -131 5 -14 17 -26 39 -26 49 0 18 -3 18 -36 -5 -20 -14 -50 -25 -67
-25 -29 0 -29 -1 -14 -18 37 -41 6 -112 -48 -112 -31 0 -65 33 -65 63 0 34 28
67 56 67 30 0 30 5 -1 42 -14 16 -25 36 -25 43 0 10 -10 12 -37 8 -21 -3 -39
-7 -41 -8 -1 -1 2 -15 8 -31 21 -54 -9 -109 -65 -120 -50 -9 -104 27 -105 70
0 14 -5 17 -22 11 -79 -25 -122 -13 -156 45 -13 21 -22 26 -32 19 -8 -5 -25
-9 -37 -9 -20 0 -21 -3 -13 -26 24 -63 -7 -120 -71 -130 -28 -5 -41 -1 -67 21
-18 15 -32 36 -32 47 0 18 -4 20 -32 13 -18 -5 -45 -8 -60 -8 -33 0 -32 3 -13
-33 21 -40 19 -52 -14 -85 -36 -35 -61 -37 -97 -6 -53 46 -26 127 43 127 l34
0 -25 33 c-15 19 -26 39 -26 46 0 9 -10 11 -32 6 -42 -9 -41 -8 -27 -38 25
-56 -23 -127 -86 -127 -47 0 -71 14 -90 50 -13 25 -19 29 -35 20 -10 -5 -33
-10 -50 -10 -27 0 -31 -3 -25 -17 28 -64 7 -118 -51 -129 -43 -8 -87 30 -87
76 0 37 40 80 75 80 20 0 20 1 3 27 -10 14 -20 36 -24 48 -6 20 -8 21 -39 8
-29 -12 -31 -16 -21 -35 14 -26 5 -85 -17 -109 -23 -25 -77 -34 -115 -19 -30
13 -59 54 -59 85 0 19 -14 19 -30 0 -31 -38 -139 -6 -155 45 -5 16 -12 19 -33
14 -39 -9 -44 -18 -31 -47 9 -20 9 -33 -1 -57 -38 -91 -149 -93 -186 -3 -12
29 -17 32 -34 23 -10 -5 -30 -10 -45 -10 -22 0 -24 -3 -15 -19 5 -11 10 -35
10 -55 0 -72 -95 -103 -143 -46 -14 16 -27 35 -29 42 -3 8 -11 7 -28 -5 -51
-36 -121 -11 -147 51 -11 26 -18 32 -31 27 -9 -4 -27 -10 -40 -13 -17 -3 -21
-9 -16 -21 20 -46 16 -70 -14 -101 -42 -42 -90 -42 -126 1 -14 17 -26 39 -26
50 0 19 -2 19 -22 5 -12 -9 -41 -16 -63 -16 -45 0 -84 31 -101 80 l-9 25 -48
-16 c-47 -15 -47 -16 -27 -34 49 -44 1 -145 -70 -145 -43 0 -90 47 -90 90 l0
32 -31 -26 c-17 -15 -43 -26 -60 -26 l-29 0 16 -34 c14 -29 15 -37 3 -62 -27
-56 -105 -55 -131 1 -16 36 0 77 39 95 l32 15 -19 25 c-11 14 -20 33 -20 43 0
14 -6 16 -27 11 -53 -11 -55 -12 -43 -33 17 -33 11 -69 -18 -102 -22 -24 -36
-31 -66 -31 -40 0 -80 28 -92 64 -3 11 -10 15 -17 11 -7 -4 -30 -10 -52 -13
l-40 -5 0 -47 c-1 -25 -7 -53 -14 -62 -21 -25 -66 -20 -91 11 -20 25 -25 27
-98 24 -42 -1 -78 -4 -80 -6 -2 -2 6 -17 19 -34 19 -25 21 -36 13 -59 -5 -15
-22 -33 -36 -40 -23 -11 -32 -10 -58 3 -37 19 -47 55 -25 89 10 14 13 26 7 26
-5 0 -21 -18 -36 -40 -18 -28 -36 -43 -57 -47 -23 -4 -28 -10 -23 -22 4 -9 9
-31 12 -48 4 -33 15 -42 27 -23 7 11 55 13 80 4 18 -7 45 -55 45 -79 0 -25
-55 -75 -83 -75 -33 0 -74 34 -82 69 l-6 28 -38 -19 c-38 -19 -38 -20 -33 -66
2 -26 6 -49 8 -51 1 -1 13 6 25 18 15 13 36 21 59 21 63 0 98 -59 76 -128 -8
-23 -53 -52 -80 -52 -14 0 -14 -4 1 -35 26 -55 10 -104 -44 -130 -30 -14 -41
-24 -36 -35 3 -8 8 -31 10 -51 4 -28 -1 -41 -25 -67 -19 -20 -40 -32 -55 -32
-32 0 -42 -14 -22 -30 9 -8 15 -30 15 -58 0 -36 -6 -52 -27 -74 -15 -15 -32
-28 -39 -28 -9 0 -11 -16 -7 -57 5 -53 3 -60 -22 -85 -14 -15 -36 -28 -48 -30
-14 -2 -20 -9 -18 -18 20 -73 2 -122 -55 -146 -30 -13 -31 -15 -26 -64 4 -46
2 -54 -23 -80 -16 -17 -43 -33 -62 -36 -37 -7 -39 -11 -18 -38 36 -48 4 -128
-58 -144 -20 -6 -30 -14 -28 -23 2 -8 6 -30 9 -49 5 -44 -25 -86 -68 -95 -35
-8 -34 -4 -14 -43 42 -86 -71 -166 -136 -97 -34 37 -33 90 4 121 15 13 36 24
47 24 22 0 25 13 5 29 -8 7 -17 22 -20 35 -5 21 -8 22 -40 12 -31 -9 -34 -14
-28 -36 11 -44 3 -83 -25 -112 -15 -15 -35 -28 -45 -28 -21 0 -22 -7 -3 -40 8
-14 14 -35 15 -48 0 -22 1 -22 22 -8 32 23 65 20 93 -9 30 -30 32 -64 4 -99
-15 -19 -30 -26 -55 -26 -36 0 -74 28 -74 55 0 19 -24 19 -40 1 -6 -8 -21 -16
-33 -18 -14 -2 -20 -9 -18 -18 17 -59 12 -87 -19 -118 -19 -19 -42 -32 -57
-32 -22 0 -24 -3 -18 -22 27 -78 -13 -144 -85 -142 -47 2 -68 17 -87 62 -13
32 -27 40 -38 22 -3 -5 -17 -10 -31 -10 -24 0 -32 -14 -15 -25 5 -3 12 -19 16
-35 7 -30 19 -38 30 -20 3 6 22 10 41 10 44 0 84 -39 84 -82 0 -38 -48 -88
-85 -88 -26 0 -77 41 -86 69 -4 12 -9 12 -29 -2 -14 -9 -32 -17 -42 -17 -19 0
-24 -15 -8 -25 15 -10 12 -68 -6 -93 -23 -33 -71 -54 -104 -47 -41 9 -80 52
-80 88 0 26 -3 29 -22 22 -59 -18 -74 -17 -106 10 -45 38 -45 92 -1 129 17 14
40 26 51 26 19 0 19 1 4 25 -9 13 -16 32 -16 41 0 13 -6 15 -27 9 -15 -3 -30
-7 -33 -7 -58 -5 -110 41 -110 98 0 30 7 44 40 75 36 34 39 41 30 65 -7 18
-15 24 -26 20 -9 -3 -31 -6 -50 -6 -34 0 -35 -1 -20 -22 22 -32 20 -62 -7 -94
-59 -69 -158 -3 -123 81 12 27 22 35 50 41 39 7 44 15 22 33 -8 7 -17 25 -21
40 -6 27 -8 28 -54 23 -40 -3 -52 0 -76 21 -24 20 -30 33 -30 65 0 46 17 70
63 89 28 11 31 16 22 33 -5 10 -10 28 -10 40 0 17 -4 21 -17 15 -73 -29 -124
-20 -153 28 -11 18 -20 45 -20 60 0 27 -1 28 -22 13 -12 -9 -33 -16 -46 -16
-32 0 -82 52 -82 85 0 28 40 75 64 75 23 0 27 16 11 46 -8 16 -15 35 -15 42 0
9 -7 11 -22 6 -69 -24 -133 17 -133 85 0 41 34 91 62 91 15 0 18 26 3 35 -5 3
-10 15 -10 26 0 17 -4 19 -22 13 -32 -10 -73 -7 -97 6 -24 12 -51 60 -51 90 0
20 -1 20 -22 6 -67 -47 -144 16 -112 92 15 36 52 50 93 36 21 -8 31 -21 58
-72 1 -2 16 7 35 20 18 12 34 24 36 25 2 1 -1 11 -8 22 -8 16 -20 21 -55 21
-32 0 -51 7 -73 25 -43 36 -49 75 -22 131 19 39 21 49 10 69 -14 26 -40 41
-40 24 0 -6 5 -19 11 -30 17 -33 -7 -87 -47 -106 -31 -15 -37 -15 -67 -1 -73
35 -70 124 5 158 35 15 37 18 23 36 -8 10 -15 28 -15 40 0 20 -3 21 -39 11
-50 -13 -85 1 -109 43 -13 24 -22 29 -37 24 -64 -20 -84 -17 -120 19 -19 19
-35 44 -35 56 0 12 -1 21 -2 21 -25 -2 -82 -32 -79 -42 17 -52 12 -78 -17
-108 -38 -38 -71 -38 -111 -1 -48 45 -40 106 18 136 l29 14 -17 36 c-14 31
-19 34 -46 29 -38 -8 -37 -5 -23 -42 33 -86 -99 -174 -157 -104 -8 9 -21 25
-28 36 -13 17 -15 17 -45 2 -27 -14 -31 -20 -26 -45 8 -37 -18 -86 -56 -106
-41 -21 -58 -19 -98 11 -48 37 -81 26 -102 -36 -12 -36 -23 -49 -54 -64 -38
-19 -39 -19 -87 1 -47 20 -48 20 -78 2 -17 -10 -31 -25 -31 -34 0 -8 -14 -30
-31 -50 -23 -25 -39 -35 -61 -35 -25 0 -29 -3 -23 -17 33 -75 -2 -138 -75
-138 -34 0 -47 6 -66 28 -13 16 -24 36 -24 46 0 17 -3 18 -38 6 -37 -13 -37
-13 -34 -64 3 -45 1 -54 -26 -81 -43 -42 -102 -43 -142 0 -44 47 -80 35 -80
-28 0 -56 -41 -111 -83 -112 -15 0 -17 -5 -10 -22 23 -66 -4 -123 -62 -134
-57 -10 -104 27 -105 84 0 37 -9 40 -35 12 -10 -11 -26 -20 -35 -20 -26 0 -31
-11 -15 -34 8 -11 15 -35 15 -53 0 -36 10 -42 30 -18 18 21 66 19 90 -5 42
-42 8 -120 -51 -120 -33 0 -69 39 -69 74 l0 28 -29 -31 c-20 -22 -38 -31 -60
-31 -30 0 -41 -13 -21 -25 20 -12 11 -81 -15 -109 -44 -48 -145 -21 -145 40 0
28 -2 28 -46 12 -32 -11 -32 -12 -27 -63 5 -47 3 -53 -27 -83 -25 -25 -40 -32
-71 -32 l-40 0 20 -26 c50 -63 10 -149 -68 -149 -45 0 -69 17 -88 63 -11 26
-17 30 -31 23 -9 -5 -25 -12 -35 -15 -14 -5 -16 -10 -7 -25 5 -11 10 -34 10
-51 0 -30 1 -31 22 -16 31 22 60 20 92 -5 30 -24 35 -71 11 -106 -40 -57 -135
-24 -135 48 0 23 5 23 -52 -4 -36 -18 -45 -26 -38 -37 34 -54 -17 -140 -83
-140 -45 0 -51 -9 -25 -37 15 -16 22 -35 21 -60 -2 -51 -39 -83 -96 -83 -33
-1 -38 -3 -24 -11 25 -14 49 -67 42 -90 -26 -80 -140 -77 -161 5 -8 34 29 85
67 93 34 7 35 8 9 40 -11 14 -20 32 -20 40 0 11 -5 13 -17 8 -10 -4 -26 -9
-35 -12 -14 -4 -16 -13 -11 -53 6 -53 -10 -88 -51 -110 -22 -11 -24 -17 -19
-66 5 -51 4 -56 -26 -84 -20 -20 -41 -30 -61 -30 -33 0 -36 -6 -15 -34 8 -11
15 -37 15 -58 0 -44 -31 -83 -74 -94 -29 -7 -30 -11 -16 -49 16 -42 -11 -93
-60 -113 -34 -14 -39 -21 -34 -37 22 -65 -8 -127 -67 -140 -33 -8 -33 -6 -18
-39 31 -66 -27 -143 -100 -132 -36 6 -71 31 -71 52 0 21 -20 27 -51 14 -20 -9
-28 -18 -25 -27 4 -8 6 -30 6 -50 l0 -34 26 20 c60 47 138 15 151 -62 5 -31 1
-40 -25 -67 -21 -21 -40 -30 -62 -30 l-32 0 17 -26 c36 -56 13 -123 -50 -144
-28 -9 -35 -16 -29 -29 28 -65 8 -122 -53 -148 -27 -11 -33 -17 -24 -26 6 -6
11 -30 11 -52 0 -32 -6 -47 -27 -67 -16 -14 -38 -29 -51 -33 -21 -6 -21 -8 -7
-28 8 -12 15 -36 15 -54 0 -36 6 -39 34 -18 28 22 59 18 84 -8 43 -46 14 -117
-46 -117 -35 0 -72 37 -72 71 l0 24 -18 -22 c-9 -12 -32 -28 -49 -34 -28 -9
-31 -14 -23 -29 6 -10 10 -32 10 -49 0 -29 0 -29 29 -15 82 41 150 -58 85
-123 -20 -20 -31 -24 -57 -19 -40 8 -67 39 -67 77 l0 30 -22 -21 c-13 -11 -32
-23 -45 -26 -19 -5 -21 -11 -16 -42 7 -46 5 -45 38 -32 60 23 125 -20 125 -82
0 -34 -48 -88 -78 -88 -19 0 -19 -2 -4 -44 15 -41 15 -47 0 -80 -10 -19 -31
-42 -48 -51 -25 -13 -29 -19 -20 -35 5 -10 10 -32 10 -49 0 -30 14 -43 22 -19
3 7 21 12 42 12 47 0 76 -30 76 -79 0 -54 -50 -83 -105 -61 -29 12 -36 21 -41
55 l-6 40 -22 -20 c-11 -11 -33 -23 -49 -26 -15 -3 -27 -7 -27 -8 0 -1 7 -19
15 -39 13 -31 18 -35 35 -26 32 17 67 11 99 -16 63 -53 28 -154 -54 -154 l-36
0 25 -33 c36 -47 35 -99 -2 -136 -15 -15 -33 -30 -39 -32 -9 -3 -11 -16 -7
-41 l6 -37 45 6 c53 7 87 -8 103 -48 23 -54 -5 -110 -62 -124 -26 -7 -26 -7
-12 -41 8 -18 14 -43 14 -54 0 -17 3 -19 19 -10 54 28 121 -7 121 -64 0 -36
-41 -76 -79 -76 l-29 0 29 -29 c21 -22 29 -39 29 -66 0 -27 -8 -44 -29 -66
-16 -16 -37 -29 -46 -29 -13 0 -16 -6 -11 -22 3 -13 6 -33 6 -45 0 -20 4 -21
54 -16 50 5 57 3 80 -22 15 -16 26 -40 26 -56 0 -37 -45 -89 -76 -89 -24 0
-24 -1 -9 -30 8 -16 15 -41 15 -56 0 -21 3 -25 18 -19 47 21 81 17 107 -10 14
-16 25 -40 25 -55 0 -30 -40 -80 -65 -80 -19 0 -19 -9 0 -34 8 -11 15 -37 15
-58 0 -41 5 -45 34 -23 27 20 49 19 80 -6 54 -43 23 -129 -47 -129 -44 0 -67
26 -67 74 l0 38 -31 -26 c-17 -14 -38 -26 -48 -26 -26 0 -30 -8 -18 -39 10
-28 13 -29 66 -24 50 4 59 2 83 -21 14 -14 29 -39 33 -55 11 -53 -40 -121 -92
-121 -26 0 -30 -12 -8 -30 8 -7 15 -21 15 -31 0 -11 1 -19 3 -19 1 1 25 9 53
18 48 17 51 20 38 37 -8 10 -14 29 -14 42 0 32 43 73 75 73 33 0 75 -42 75
-75 0 -31 -41 -75 -70 -75 -20 0 -20 -1 4 -33 15 -19 26 -47 26 -64 0 -39 -47
-91 -89 -99 -28 -6 -30 -9 -18 -23 8 -9 17 -25 21 -35 5 -15 9 -17 18 -8 7 7
29 12 50 12 43 0 44 2 23 34 -24 36 -10 81 30 100 55 27 108 -6 108 -66 0 -39
-45 -82 -80 -75 -28 5 -29 -4 -3 -28 11 -10 22 -33 26 -51 7 -39 5 -38 38 -23
54 25 116 -19 116 -81 0 -41 -32 -80 -66 -80 -33 0 -35 -11 -9 -42 14 -16 25
-34 25 -39 0 -5 20 -6 45 -2 54 7 90 -13 110 -62 25 -58 -7 -105 -87 -129 -17
-5 -17 -7 0 -35 16 -28 20 -30 62 -24 55 7 54 7 41 31 -29 54 9 122 67 122 39
0 82 -43 82 -82 0 -34 -39 -78 -70 -78 -24 0 -25 -8 -5 -46 8 -16 15 -37 15
-47 0 -16 2 -16 30 -2 48 25 88 19 121 -16 16 -17 29 -42 29 -56 0 -22 3 -24
23 -18 76 26 137 -9 137 -80 0 -44 -30 -85 -63 -85 -21 0 -32 -19 -18 -33 6
-6 11 -19 11 -28 0 -14 7 -16 43 -12 52 7 51 7 38 31 -18 33 -13 67 14 96 45
49 124 28 141 -38 8 -34 -21 -84 -54 -92 -41 -10 -43 -13 -27 -37 8 -12 15
-32 15 -44 0 -27 2 -28 42 -7 19 10 42 14 62 10 36 -7 86 -52 86 -77 0 -16 7
-17 50 -12 55 6 93 -11 111 -51 10 -20 16 -22 65 -18 50 4 58 2 85 -24 16 -15
29 -34 29 -41 0 -9 16 -13 56 -13 55 0 55 0 40 22 -22 31 -20 60 5 92 33 42
99 35 124 -14 11 -22 12 -35 4 -59 -13 -36 -35 -51 -76 -51 -26 0 -26 -1 -8
-14 11 -7 37 -16 58 -20 33 -6 37 -5 37 14 0 29 26 76 45 84 67 25 125 -13
125 -82 0 -23 5 -42 10 -42 6 0 10 5 10 10 0 24 50 60 83 60 37 0 82 -29 92
-59 5 -15 16 -19 63 -18 31 0 80 -4 109 -8 59 -9 103 -1 103 19 0 22 35 46 68
46 22 0 37 -8 54 -30 22 -28 26 -29 153 -40 246 -20 630 -11 895 20 173 21
425 62 575 95 39 8 102 22 140 30 65 14 368 89 545 136 41 11 119 29 173 40
210 44 382 139 879 486 623 435 1023 597 1433 579 77 -3 203 -9 281 -12 148
-7 438 6 689 32 824 83 1648 310 2285 629 195 97 339 181 372 216 15 16 35 29
46 29 10 0 59 28 108 62 295 205 585 493 758 754 l46 70 133 13 c308 29 553
53 722 71 50 6 158 17 240 25 83 9 186 20 230 25 44 5 139 17 210 25 162 19
175 22 175 40 0 20 37 38 65 31 31 -8 37 -28 35 -119 -1 -62 2 -78 15 -83 23
-9 26 -2 13 34 -17 43 9 96 58 119 34 17 37 17 72 -2 21 -11 44 -34 52 -52 10
-22 20 -31 30 -27 48 18 77 15 108 -11 26 -21 32 -34 32 -65 0 -50 -39 -90
-87 -90 l-35 0 26 -31 c48 -56 29 -136 -39 -165 -28 -11 -31 -17 -28 -46 8
-59 10 -61 43 -37 41 31 95 18 128 -31 35 -53 11 -122 -49 -135 -26 -6 -30
-10 -24 -28 4 -12 9 -35 12 -50 4 -21 9 -27 22 -21 46 20 70 16 101 -14 18
-19 30 -41 30 -57 0 -32 -49 -85 -80 -85 -20 0 -20 -1 -6 -22 24 -35 21 -104
-7 -132 -12 -12 -30 -27 -39 -32 -13 -7 -15 -17 -9 -44 l7 -35 56 3 c50 3 57
1 77 -24 29 -37 27 -85 -5 -118 -15 -14 -38 -26 -52 -26 -24 0 -24 -1 -8 -25
9 -13 16 -40 16 -60 0 -36 8 -43 28 -23 6 6 26 11 44 10 59 -2 88 -69 52 -120
-23 -33 -86 -31 -114 5 -14 18 -19 35 -15 50 7 28 1 29 -28 3 -12 -12 -31 -23
-44 -26 -18 -5 -21 -11 -16 -42 7 -53 13 -68 21 -56 25 39 90 43 131 8 25 -21
31 -33 31 -65 0 -46 -35 -89 -71 -89 -18 0 -20 -4 -14 -22 4 -13 9 -38 12 -55
5 -33 16 -42 28 -23 3 6 21 10 40 10 25 0 40 -8 59 -31 14 -17 26 -40 26 -51
0 -27 -53 -78 -83 -78 -34 0 -74 35 -82 71 -6 27 -8 29 -23 15 -10 -8 -30 -18
-45 -21 -21 -6 -26 -12 -21 -24 3 -9 9 -26 12 -39 3 -18 9 -21 26 -15 75 27
146 -19 146 -95 0 -36 -5 -49 -31 -73 -17 -16 -40 -29 -51 -29 -15 0 -18 -4
-13 -17 4 -10 10 -30 12 -44 l5 -26 41 21 41 20 48 -27 c39 -22 55 -26 93 -20
43 5 45 7 45 39 0 36 37 74 72 74 29 0 71 -47 66 -74 -4 -22 -1 -24 56 -30 39
-4 67 -13 81 -26 20 -19 28 -19 221 -10 109 5 291 14 404 20 227 10 508 25
790 40 102 6 329 17 505 26 176 9 322 17 324 19 2 2 -1 80 -6 172 -6 92 -6
172 -2 177 5 6 9 36 9 68 0 57 -1 58 -28 58 -40 0 -72 33 -72 74 0 37 25 66
58 66 30 0 34 14 12 43 -24 30 -26 84 -4 115 10 15 14 39 12 74 -3 48 -5 53
-28 56 -35 5 -70 41 -70 72 0 32 37 70 68 70 27 0 28 22 6 75 -13 31 -13 45
-3 84 7 28 9 66 5 93 -6 41 -10 47 -36 53 -34 8 -60 39 -60 73 0 28 42 72 70
72 24 0 25 6 5 54 -12 28 -13 46 -5 79 5 24 7 66 4 94 -6 45 -9 50 -38 59 -68
20 -70 104 -3 136 34 17 36 20 26 45 -7 17 -8 57 -5 98 8 92 0 134 -30 145
-28 11 -44 39 -44 79 0 22 8 36 31 53 l31 23 -4 139 c-3 109 -7 141 -18 144
-7 3 -24 15 -37 28 -33 33 -31 79 7 114 28 26 30 32 30 106 l0 77 -24 -22
c-33 -31 -76 -25 -94 12 -26 55 31 97 89 67 35 -19 23 30 -16 66 -44 40 -46
75 -5 116 28 27 30 35 30 99 0 38 -2 69 -4 69 -2 0 -16 -6 -30 -14 -46 -24
-88 0 -88 49 0 14 5 32 12 40 15 18 71 20 88 3 25 -25 12 39 -13 66 -31 33
-33 83 -5 119 15 19 20 40 20 91 0 36 -2 66 -4 66 -1 0 -17 -5 -35 -11 -43
-15 -81 9 -81 51 0 43 26 63 72 57 46 -6 50 10 13 55 -31 36 -33 86 -4 121 16
21 19 38 17 79 -3 52 -4 53 -34 53 -66 0 -97 70 -51 113 13 12 35 22 50 22 35
0 35 22 2 62 -30 36 -32 70 -4 114 15 24 19 46 17 81 -3 45 -5 48 -33 51 -58
7 -93 63 -62 103 16 21 55 41 67 34 18 -11 20 15 4 46 -11 22 -14 43 -9 73 4
22 7 70 8 106 l2 65 -30 3 c-41 5 -65 29 -65 67 0 36 23 62 60 67 27 3 29 15
9 65 -11 26 -11 42 -1 78 7 25 12 65 12 90 0 42 -2 46 -35 59 -67 28 -72 101
-10 138 19 11 35 22 35 24 0 2 -8 22 -17 45 -14 35 -14 49 -5 86 13 47 15 102
6 127 -3 9 -21 23 -39 32 -56 26 -58 102 -4 126 35 16 43 36 29 74 -6 15 -8
46 -4 67 3 21 3 62 0 91 -6 46 -11 54 -41 70 -19 10 -36 29 -40 43 -7 31 14
75 42 88 30 13 34 26 22 70 -6 21 -8 49 -4 63 3 14 3 54 -1 89 -5 55 -9 64
-29 69 -14 3 -30 20 -40 40 -14 29 -14 38 -3 61 7 14 22 31 33 37 24 13 35 27
29 37 -2 5 -6 62 -8 129 l-3 121 -31 29 c-40 36 -42 76 -7 118 22 26 25 39 25
105 0 42 -4 79 -10 82 -5 3 -10 2 -10 -4 0 -6 -11 -18 -24 -26 -27 -18 -69 -7
-80 20 -10 28 5 66 30 75 28 11 74 -6 74 -27 0 -8 4 -11 10 -8 14 9 1 68 -20
85 -45 41 -50 80 -14 127 20 26 24 42 22 75 l-3 43 -41 -3 c-36 -3 -45 1 -68
28 -45 54 -28 120 36 143 17 6 17 8 1 42 -11 23 -22 34 -31 30 -7 -3 -19 -5
-27 -5 -9 0 -11 -12 -7 -46 6 -54 -10 -90 -50 -110 -51 -26 -109 -10 -134 37
-13 26 -16 27 -69 22 -52 -5 -58 -4 -85 22 -17 16 -30 37 -30 46 0 25 -9 27
-54 14 -24 -7 -35 -14 -28 -19 7 -4 12 -25 12 -47 0 -107 -143 -124 -175 -21
-7 23 -20 29 -30 12 -3 -5 -26 -10 -50 -10 -32 0 -51 7 -74 26 -17 14 -31 32
-31 39 0 10 -10 12 -37 8 -21 -3 -40 -7 -42 -9 -2 -2 2 -17 8 -34 13 -38 -6
-92 -37 -109 -51 -27 -123 2 -136 55 -5 20 -11 24 -24 18 -9 -4 -36 -9 -59
-12 -41 -4 -42 -5 -28 -25 22 -31 18 -70 -8 -95 -31 -30 -72 -28 -104 4 -20
20 -24 31 -19 57 7 38 39 67 73 67 l24 0 -20 29 c-12 16 -21 39 -21 51 0 17
-4 20 -17 15 -10 -4 -30 -10 -45 -13 -31 -5 -32 -9 -18 -47 22 -59 -47 -135
-109 -120 -31 8 -71 43 -71 63 0 10 -6 12 -22 8 -13 -4 -39 -10 -59 -13 -36
-5 -36 -5 -22 -33 25 -52 -9 -110 -65 -110 -13 0 -37 14 -54 30 -24 25 -29 36
-24 58 9 36 41 62 78 62 l30 0 -26 31 c-14 17 -26 37 -26 45 0 10 -8 12 -32 7
-42 -8 -40 -4 -27 -42 16 -46 -9 -97 -57 -117 -32 -14 -39 -13 -72 3 -31 15
-51 39 -64 75 -2 4 -20 2 -41 -4 -48 -15 -99 7 -122 52 -13 25 -19 29 -35 20
-10 -5 -27 -10 -37 -10 -16 0 -18 -10 -19 -80 0 -44 -3 -82 -5 -85 -3 -2 -61
-7 -129 -11 -100 -5 -132 -11 -159 -27 -29 -17 -38 -18 -65 -9 -71 26 -126 13
-126 -29 0 -31 10 -35 42 -18 47 25 108 -21 108 -81 0 -42 -33 -80 -68 -80
-26 0 -27 -7 -6 -50 23 -46 6 -101 -41 -130 -29 -18 -33 -25 -25 -40 6 -10 10
-28 10 -40 0 -17 4 -20 18 -15 47 21 71 17 102 -13 38 -39 40 -79 4 -116 -15
-14 -37 -26 -50 -26 -27 0 -31 -12 -9 -30 9 -8 15 -30 15 -59 0 -52 -21 -81
-73 -100 -24 -9 -26 -14 -17 -30 5 -11 10 -29 10 -40 0 -22 14 -28 25 -11 3 6
21 10 39 10 76 0 114 -95 60 -145 -15 -14 -33 -25 -40 -25 -18 0 -18 -11 1
-36 41 -55 -10 -154 -80 -154 -18 0 -18 4 0 -45 8 -24 19 -38 27 -36 52 17 78
12 108 -17 18 -19 30 -41 30 -57 0 -37 -50 -85 -88 -85 -32 0 -82 39 -82 65 0
9 -3 15 -7 13 -5 -2 -21 -10 -38 -18 -16 -8 -31 -15 -33 -16 -2 -1 0 -13 3
-26 6 -23 10 -24 59 -20 48 4 55 2 84 -28 26 -26 32 -39 32 -75 0 -38 -5 -48
-38 -77 -35 -30 -38 -36 -34 -75 4 -42 14 -54 27 -33 3 6 24 10 45 10 47 0 80
-35 80 -85 0 -34 -34 -75 -63 -75 -24 0 -28 -15 -12 -46 8 -16 15 -37 15 -47
0 -34 -31 -79 -64 -92 -33 -14 -33 -16 -28 -60 6 -58 -10 -90 -58 -111 -36
-16 -36 -17 -26 -54 9 -36 11 -38 30 -24 11 8 35 14 53 14 38 0 39 2 17 35
-32 48 11 115 73 115 43 0 83 -38 83 -78 0 -37 -41 -82 -75 -82 -29 0 -31 -7
-10 -34 8 -11 15 -37 15 -59 0 -47 -43 -97 -84 -97 -30 0 -32 -8 -11 -36 8
-10 15 -31 15 -47 0 -27 0 -27 30 -12 77 40 150 -54 87 -113 -41 -39 -108 -20
-121 33 l-7 26 -28 -21 c-45 -31 -102 -27 -140 11 -17 17 -31 39 -31 50 0 16
-5 19 -22 14 -13 -4 -31 -9 -40 -11 -14 -4 -15 -10 -8 -30 16 -41 12 -71 -14
-101 -45 -52 -148 -26 -158 41 -2 13 -9 19 -18 17 -8 -2 -32 -6 -53 -9 -31 -3
-37 -7 -32 -21 23 -54 16 -93 -20 -117 -40 -26 -88 -12 -111 34 -10 20 -20 39
-21 41 -2 2 -12 -4 -24 -15 -48 -44 -139 -10 -154 57 -7 33 -12 34 -39 14 -11
-8 -28 -15 -39 -15 -16 0 -18 -4 -12 -22 15 -45 9 -81 -19 -105 -77 -66 -179
30 -116 110 11 14 29 28 39 32 18 5 18 7 -1 44 -17 35 -22 38 -46 31 -16 -4
-25 -13 -23 -21 13 -43 10 -77 -8 -106 -40 -64 -137 -61 -177 6 -13 22 -23 29
-34 25 -8 -4 -27 -9 -42 -12 -23 -3 -26 -7 -18 -22 31 -58 -10 -130 -73 -130
-39 0 -87 40 -87 72 0 16 -4 18 -17 12 -10 -4 -41 -9 -69 -12 -49 -4 -53 -2
-78 31 -14 18 -26 41 -26 50 0 14 -5 15 -26 7 -43 -17 -72 -11 -109 21 -27 24
-35 39 -35 66 0 30 -3 34 -17 28 -48 -21 -72 -17 -103 13 -39 39 -39 75 -1
111 l28 26 -5 130 -5 129 -33 32 c-19 17 -34 39 -34 48 0 24 20 59 43 75 18
13 19 22 12 143 -7 129 -8 131 -38 158 -40 35 -41 79 -4 118 23 24 27 37 27
83 0 63 -5 72 -32 58 -36 -19 -88 14 -88 57 0 39 36 67 76 61 42 -7 43 5 4 50
-37 42 -39 81 -5 121 20 24 25 41 25 85 0 53 -11 79 -25 57 -11 -18 -51 -11
-73 13 -45 48 -10 114 54 104 30 -5 34 -3 34 17 0 13 -8 34 -19 47 -32 41 -34
66 -11 112 16 31 20 57 18 97 l-3 55 -36 -3 c-28 -3 -42 2 -58 19 -28 30 -26
54 5 86 20 20 32 24 55 19 35 -7 38 9 9 47 -24 30 -26 84 -4 115 10 15 14 39
12 74 -3 51 -4 52 -38 59 -18 4 -40 15 -47 25 -31 43 1 114 52 114 30 0 31 9
5 43 -24 30 -26 79 -4 112 9 14 14 39 12 62 -3 35 -6 38 -40 44 -45 7 -61 20
-83 65 -12 26 -20 33 -28 25 -6 -6 -26 -11 -45 -11 -29 0 -33 -3 -27 -17 24
-59 16 -97 -25 -118 -80 -41 -152 54 -90 120 13 14 34 25 47 25 26 0 30 12 8
30 -8 7 -15 20 -15 29 0 29 -13 37 -47 27z m-768 -151 c14 -13 25 -34 25 -46
0 -31 -38 -69 -69 -69 -32 0 -71 37 -71 67 0 30 42 73 70 73 11 0 32 -11 45
-25z m-1288 -26 c6 -6 15 -24 18 -40 13 -60 -50 -112 -107 -88 -34 14 -48 37
-48 76 0 36 9 48 44 67 29 15 63 9 93 -15z m6841 11 c31 -29 29 -73 -4 -99
-34 -26 -54 -26 -82 -1 -28 26 -29 73 -2 100 26 26 60 25 88 0z m-426 -17 c22
-20 23 -70 1 -95 -20 -22 -70 -23 -95 -1 -22 20 -23 70 -1 95 20 22 70 23 95
1z m-4082 -23 c11 -11 20 -29 20 -40 0 -25 -42 -70 -65 -70 -22 0 -65 45 -65
68 0 27 37 62 65 62 14 0 34 -9 45 -20z m2769 5 c66 -34 50 -126 -25 -141 -24
-4 -37 0 -59 18 -38 34 -39 82 -1 115 32 27 47 28 85 8z m-3635 -47 c16 -26
-4 -53 -40 -53 -23 0 -30 5 -32 23 -2 13 -1 30 2 38 8 20 56 14 70 -8z m-450
-4 c21 -21 20 -40 -4 -64 -16 -16 -25 -18 -40 -10 -35 19 -43 47 -20 70 24 24
43 25 64 4z m866 -14 c0 -23 -13 -32 -34 -24 -19 7 -21 25 -5 41 16 16 39 5
39 -17z m-1712 8 c7 -7 12 -26 12 -43 0 -37 -16 -55 -48 -55 -41 0 -62 18 -62
53 0 41 15 57 55 57 17 0 36 -5 43 -12z m421 -14 c23 -29 16 -55 -20 -75 -17
-9 -25 -7 -45 12 -29 27 -30 43 -4 69 27 27 44 25 69 -6z m6419 10 c28 -19 28
-58 1 -78 -23 -16 -47 -12 -66 12 -18 22 -16 39 7 62 24 24 29 24 58 4z
m-7288 -14 c24 -24 26 -57 3 -82 -33 -37 -103 -11 -103 39 0 28 33 63 60 63
11 0 29 -9 40 -20z m6844 4 c35 -35 -2 -85 -46 -62 -33 17 -15 76 24 78 4 0
14 -7 22 -16z m-7694 -14 c41 -41 10 -120 -47 -120 -29 0 -73 42 -73 68 0 59
79 93 120 52z m403 9 c14 -6 30 -23 37 -37 9 -21 8 -30 -8 -51 -37 -50 -112
-31 -112 28 0 31 8 44 35 59 25 14 20 14 48 1z m5995 -15 c43 -30 21 -94 -31
-94 -40 0 -57 15 -57 51 0 27 30 59 55 59 6 0 21 -7 33 -16z m870 4 c19 -19
14 -56 -8 -68 -38 -21 -80 22 -60 61 12 21 50 25 68 7z m-424 -17 c37 -41 -14
-97 -60 -66 -28 18 -31 41 -7 67 21 23 45 23 67 -1z m-879 -39 c9 -23 -21 -49
-42 -36 -24 15 -26 29 -8 47 18 18 40 13 50 -11z m2341 -13 c10 -17 -23 -46
-37 -32 -7 7 -9 19 -6 27 7 18 33 21 43 5z m-6866 -29 c0 -5 -7 -10 -15 -10
-8 0 -15 5 -15 10 0 6 7 10 15 10 8 0 15 -4 15 -10z m-1289 -16 c9 -11 10 -20
2 -32 -13 -22 -43 -22 -56 -1 -24 38 25 68 54 33z m859 1 c0 -8 -7 -15 -15
-15 -16 0 -20 12 -8 23 11 12 23 8 23 -8z m-1292 -4 c8 -5 12 -21 10 -37 -3
-25 -7 -29 -33 -29 -26 0 -30 4 -33 29 -3 27 10 46 33 46 6 0 16 -4 23 -9z
m7272 -1 c0 -5 -2 -10 -4 -10 -3 0 -8 5 -11 10 -3 6 -1 10 4 10 6 0 11 -4 11
-10z m-7684 -36 c8 -30 -11 -54 -42 -54 -30 0 -49 33 -34 59 19 37 66 34 76
-5z m1264 21 c0 -8 -7 -15 -15 -15 -8 0 -15 7 -15 15 0 8 7 15 15 15 8 0 15
-7 15 -15z m5992 0 c0 -5 -5 -11 -11 -13 -6 -2 -11 4 -11 13 0 9 5 15 11 13 6
-2 11 -8 11 -13z m-434 -18 c2 -12 -3 -17 -17 -17 -15 0 -21 6 -21 21 0 25 33
22 38 -4z m-250 -59 c32 -32 -8 -80 -48 -58 -34 18 -19 70 20 70 9 0 21 -5 28
-12z m-6843 -43 c0 -22 -31 -33 -47 -17 -17 17 -1 44 24 40 15 -2 23 -10 23
-23z m415 21 c0 -3 -4 -8 -10 -11 -5 -3 -10 -1 -10 4 0 6 5 11 10 11 6 0 10
-2 10 -4z m6608 -88 c-2 -13 -10 -23 -18 -23 -8 0 -16 10 -18 23 -3 17 2 22
18 22 16 0 21 -5 18 -22z m-6862 -9 c10 -17 -13 -36 -27 -22 -12 12 -4 33 11
33 5 0 12 -5 16 -11z m4274 -58 c0 -26 -25 -44 -50 -36 -25 8 -27 50 -3 64 23
12 53 -4 53 -28z m2360 7 c39 -43 11 -108 -47 -108 -34 0 -46 8 -62 37 -15 30
-14 36 10 67 26 33 70 35 99 4z m-6885 -43 c0 -13 -8 -21 -22 -23 -17 -3 -23
2 -23 16 0 10 3 22 7 26 13 13 38 1 38 -19z m7275 15 c0 -5 -4 -10 -10 -10 -5
0 -10 5 -10 10 0 6 5 10 10 10 6 0 10 -4 10 -10z m-245 -85 c0 -23 -34 -33
-45 -14 -13 20 1 40 24 37 13 -2 21 -10 21 -23z m-6857 -12 c5 -17 -26 -29
-40 -15 -6 6 -7 15 -3 22 9 14 37 9 43 -7z m9198 -14 c10 -17 -13 -36 -27 -22
-12 12 -4 33 11 33 5 0 12 -5 16 -11z m-2176 -59 c0 -11 -6 -20 -14 -20 -18 0
-29 16 -21 30 11 18 35 11 35 -10z m-7276 -6 c31 -30 13 -67 -30 -62 -35 4
-47 44 -18 65 23 17 29 16 48 -3z m7036 -100 c0 -28 -25 -42 -49 -27 -23 15
-26 45 -6 59 25 18 55 0 55 -32z m-6872 4 c-2 -13 -10 -23 -18 -23 -8 0 -16
10 -18 23 -3 17 2 22 18 22 16 0 21 -5 18 -22z m-3425 -61 c24 -28 21 -64 -8
-92 -27 -28 -45 -31 -78 -14 -30 16 -37 28 -37 65 0 65 78 91 123 41z m-439
-12 c14 -13 26 -34 26 -46 0 -32 -38 -69 -72 -69 -64 0 -92 80 -42 119 35 27
55 26 88 -4z m3628 8 c36 -33 10 -93 -42 -93 -34 0 -50 17 -50 55 0 17 5 36
12 43 17 17 58 15 80 -5z m7268 -3 c0 -13 -7 -20 -20 -20 -13 0 -20 7 -20 20
0 13 7 20 20 20 13 0 20 -7 20 -20z m2362 3 c20 -18 24 -63 6 -81 -30 -30 -98
-1 -98 41 0 48 56 73 92 40z m-2592 -63 c41 -41 10 -110 -50 -110 -34 0 -70
33 -70 65 0 55 80 85 120 45z m-2362 1 c8 -4 12 -19 10 -32 -2 -18 -9 -24 -28
-24 -19 0 -26 6 -28 24 -3 20 11 41 28 41 3 0 11 -4 18 -9z m-8556 -28 c24
-22 24 -77 -2 -103 -42 -42 -120 -8 -120 52 0 58 78 91 122 51z m840 0 c10 -9
18 -23 18 -31 0 -23 -30 -52 -55 -52 -43 0 -60 47 -28 82 20 22 41 23 65 1z
m-436 -24 c3 -6 -1 -18 -10 -27 -15 -15 -17 -15 -32 0 -19 19 -11 38 16 38 10
0 22 -5 26 -11z m3629 -14 c0 -30 -39 -27 -43 3 -3 20 0 23 20 20 15 -2 23
-10 23 -23z m-235 -35 c41 -41 15 -110 -42 -110 -33 0 -68 31 -68 62 0 29 38
68 67 68 13 0 32 -9 43 -20z m-4040 -40 c27 -50 -11 -120 -65 -120 -58 0 -95
78 -60 127 26 37 104 32 125 -7z m11304 17 c8 -13 7 -20 -4 -27 -8 -5 -19 -10
-23 -10 -12 0 -20 28 -13 46 7 19 25 15 40 -9z m-6854 -7 c0 -5 -4 -10 -10
-10 -5 0 -10 5 -10 10 0 6 5 10 10 10 6 0 10 -4 10 -10z m-4062 -33 c4 -20
-25 -34 -40 -19 -15 15 -1 44 19 40 10 -2 19 -11 21 -21z m11100 -34 c-2 -10
-10 -18 -18 -18 -8 0 -16 8 -18 18 -2 12 3 17 18 17 15 0 20 -5 18 -17z
m-11360 -25 c17 -17 15 -43 -4 -59 -31 -26 -70 25 -44 56 15 18 32 19 48 3z
m4080 -11 c4 -20 -25 -34 -40 -19 -15 15 -1 44 19 40 10 -2 19 -11 21 -21z
m-247 -28 c49 -26 42 -97 -11 -119 -32 -13 -63 -2 -80 30 -16 29 -12 49 15 75
26 27 46 31 76 14z m7283 -32 c9 -15 7 -21 -9 -33 -22 -16 -34 -14 -49 8 -7
12 -6 21 4 33 16 19 39 16 54 -8z m-10064 -2 c13 -16 5 -54 -13 -56 -50 -5
-72 25 -41 55 19 20 38 20 54 1z m3190 -26 c0 -5 -7 -9 -15 -9 -15 0 -20 12
-9 23 8 8 24 -1 24 -14z m-4483 -15 c12 -19 11 -24 -5 -44 -36 -45 -99 -1 -72
50 14 27 57 23 77 -6z m403 1 c0 -8 -7 -15 -15 -15 -16 0 -20 12 -8 23 11 12
23 8 23 -8z m13482 -32 c34 -31 11 -93 -35 -93 -27 0 -57 28 -57 53 0 48 56
73 92 40z m-2367 -19 c0 -10 -8 -20 -18 -22 -22 -4 -35 27 -16 39 20 12 34 5
34 -17z m-11784 6 c17 0 41 -49 34 -69 -21 -67 -113 -67 -126 -1 -8 39 35 85
69 74 8 -2 18 -4 23 -4z m4504 -25 c0 -22 -31 -33 -47 -17 -17 17 -1 44 24 40
15 -2 23 -10 23 -23z m7029 -6 c13 -7 30 -25 37 -41 10 -25 9 -33 -8 -56 -52
-71 -154 -8 -112 69 8 16 28 30 56 38 1 1 13 -4 27 -10z m-11118 -20 c10 -17
-13 -36 -27 -22 -12 12 -4 33 11 33 5 0 12 -5 16 -11z m3852 -29 c51 -48 -2
-132 -68 -108 -39 13 -54 51 -35 88 23 45 67 53 103 20z m4910 3 c-2 -10 -10
-18 -18 -18 -8 0 -16 8 -18 18 -2 12 3 17 18 17 15 0 20 -5 18 -17z m-9408
-40 c40 -52 9 -117 -56 -117 -66 0 -98 73 -52 121 31 33 80 31 108 -4z m4890
7 c0 -5 -4 -10 -10 -10 -5 0 -10 5 -10 10 0 6 5 10 10 10 6 0 10 -4 10 -10z
m-4503 -26 c8 -21 -13 -42 -28 -27 -13 13 -5 43 11 43 6 0 13 -7 17 -16z
m11543 -30 c11 -12 10 -18 -3 -32 -16 -15 -18 -15 -34 0 -13 14 -14 20 -3 32
7 9 16 16 20 16 4 0 13 -7 20 -16z m-7285 -29 c0 -13 -8 -21 -22 -23 -17 -3
-23 2 -23 16 0 10 3 22 7 26 13 13 38 1 38 -19z m-2785 0 c0 -8 -7 -15 -15
-15 -8 0 -15 7 -15 15 0 8 7 15 15 15 8 0 15 -7 15 -15z m-1722 -53 c3 -16 -2
-22 -17 -22 -24 0 -35 15 -27 36 9 23 40 13 44 -14z m1922 8 c11 -11 20 -29
20 -40 0 -26 -34 -60 -62 -60 -29 0 -58 28 -58 57 0 28 33 63 60 63 11 0 29
-9 40 -20z m2350 -10 c29 -29 26 -74 -6 -99 -34 -27 -50 -26 -79 4 -33 32 -32
68 1 94 33 26 58 27 84 1z m7690 -16 c0 -8 -9 -14 -20 -14 -22 0 -28 26 -7 33
16 6 27 -1 27 -19z m-7292 -15 c-2 -6 -8 -10 -13 -10 -5 0 -11 4 -13 10 -2 6
4 11 13 11 9 0 15 -5 13 -11z m-4918 -19 c25 -25 25 -42 0 -65 -27 -24 -68
-13 -76 22 -5 20 -2 31 16 45 28 23 35 23 60 -2z m410 -15 c0 -8 -7 -15 -15
-15 -16 0 -20 12 -8 23 11 12 23 8 23 -8z m11554 -17 c15 -25 -4 -53 -35 -53
-19 0 -25 6 -27 29 -5 45 38 61 62 24z m-7294 -48 c0 -24 -26 -38 -42 -22 -16
16 -2 42 22 42 13 0 20 -7 20 -20z m-4512 -37 c-2 -10 -10 -18 -18 -18 -8 0
-16 8 -18 18 -2 12 3 17 18 17 15 0 20 -5 18 -17z m4291 -29 c20 -44 -21 -94
-69 -85 -27 5 -50 33 -50 61 0 67 91 85 119 24z m10029 30 c25 -17 29 -56 8
-74 -21 -16 -56 -9 -73 16 -12 18 -11 24 8 47 24 31 27 32 57 11z m-2335 -6
c6 -19 -3 -38 -18 -38 -18 0 -28 17 -21 35 7 18 33 20 39 3z m-7298 -28 c3 -5
1 -10 -4 -10 -6 0 -11 5 -11 10 0 6 2 10 4 10 3 0 8 -4 11 -10z m7059 -21 c47
-37 21 -119 -39 -119 -31 0 -65 36 -65 70 0 29 38 70 65 70 7 0 24 -9 39 -21z
m-11996 -32 c4 -20 -25 -34 -40 -19 -15 15 -1 44 19 40 10 -2 19 -11 21 -21z
m9622 -2 c0 -8 -7 -15 -15 -15 -8 0 -15 7 -15 15 0 8 7 15 15 15 8 0 15 -7 15
-15z m-7262 -23 c4 -28 -14 -52 -38 -52 -26 0 -43 26 -36 55 6 22 11 26 39 23
25 -2 33 -8 35 -26z m2330 -30 c3 -16 -2 -22 -16 -22 -22 0 -32 17 -24 38 7
20 37 9 40 -16z m-4938 -31 c18 -36 -11 -68 -50 -56 -42 13 -29 75 15 75 14 0
29 -8 35 -19z m4688 -14 c17 -13 15 -57 -5 -79 -35 -39 -98 -7 -91 48 5 46 56
62 96 31z m7710 -5 c3 -16 -2 -22 -17 -22 -24 0 -35 15 -27 36 9 23 40 13 44
-14z m-12643 -37 c47 -46 19 -115 -47 -115 -64 0 -91 69 -46 117 28 30 63 29
93 -2z m5345 5 c0 -5 -4 -10 -10 -10 -5 0 -10 5 -10 10 0 6 5 10 10 10 6 0 10
-4 10 -10z m-4945 -51 c0 -7 -8 -15 -17 -17 -18 -3 -25 18 -11 32 10 10 28 1
28 -15z m12410 0 c0 -7 -8 -15 -17 -17 -18 -3 -25 18 -11 32 10 10 28 1 28
-15z m-7715 -24 c13 -16 6 -35 -15 -35 -18 0 -28 17 -21 35 7 19 20 19 36 0z
m5135 -15 c41 -45 -18 -110 -70 -76 -27 18 -34 63 -13 84 18 18 63 14 83 -8z
m2339 -32 c8 -14 6 -22 -11 -40 -22 -21 -23 -21 -43 -3 -24 22 -25 29 -4 50
20 19 43 16 58 -7z m-12426 -16 c3 -16 -2 -22 -16 -22 -24 0 -35 23 -19 39 16
16 31 8 35 -17z m2772 -17 c0 -8 -7 -15 -15 -15 -8 0 -15 7 -15 15 0 8 7 15
15 15 8 0 15 -7 15 -15z m1944 -17 c16 -26 -4 -53 -40 -53 -23 0 -30 5 -32 23
-2 13 -1 30 2 38 8 20 56 14 70 -8z m-1722 -5 c24 -21 23 -68 -2 -93 -58 -58
-142 20 -94 88 18 27 69 30 96 5z m-3240 -10 c25 -22 23 -59 -4 -77 -28 -20
-30 -20 -56 4 -27 26 -28 44 -2 70 24 24 38 25 62 3z m12831 -25 c6 -19 -3
-38 -18 -38 -18 0 -28 17 -21 35 7 18 33 20 39 3z m2357 -18 c11 -11 20 -24
20 -30 0 -13 -37 -50 -50 -50 -11 0 -50 40 -50 52 0 11 38 48 50 48 6 0 19 -9
30 -20z m-10070 -30 c0 -13 -7 -20 -20 -20 -13 0 -20 7 -20 20 0 13 7 20 20
20 13 0 20 -7 20 -20z m7482 -17 c28 -25 24 -77 -8 -102 -15 -12 -32 -21 -39
-21 -7 0 -24 9 -39 21 -34 27 -36 81 -4 103 29 21 67 20 90 -1z m-2362 -18 c0
-8 -7 -15 -15 -15 -8 0 -15 7 -15 15 0 8 7 15 15 15 8 0 15 -7 15 -15z
m-10060 -15 c0 -13 -7 -20 -20 -20 -13 0 -20 7 -20 20 0 13 7 20 20 20 13 0
20 -7 20 -20z m4689 -34 c23 -28 -17 -68 -45 -45 -15 12 -19 41 -7 52 11 12
40 8 52 -7z m-4960 -50 c15 -18 4 -46 -19 -46 -29 0 -43 25 -25 44 20 20 29
20 44 2z m12856 -21 c0 -30 -39 -27 -43 3 -3 20 0 23 20 20 15 -2 23 -10 23
-23z m-13104 -25 c4 0 16 -14 25 -31 15 -30 15 -33 -4 -58 -49 -67 -145 -15
-107 59 15 28 38 41 63 34 8 -2 18 -4 23 -4z m5367 -7 c-2 -10 -10 -18 -18
-18 -8 0 -16 8 -18 18 -2 12 3 17 18 17 15 0 20 -5 18 -17z m-1718 -7 c6 -8
10 -25 8 -38 -6 -42 -78 -32 -78 11 0 37 46 55 70 27z m-3220 -32 c0 -8 -7
-14 -15 -14 -15 0 -21 21 -9 33 10 9 24 -2 24 -19z m12840 6 c0 -11 -7 -20
-15 -20 -8 0 -15 9 -15 20 0 11 7 20 15 20 8 0 15 -9 15 -20z m-8152 -54 c-2
-13 -10 -21 -23 -21 -23 0 -33 34 -14 45 20 13 40 -1 37 -24z m5570 22 c7 -7
12 -24 12 -38 0 -14 -5 -31 -12 -38 -7 -7 -24 -12 -38 -12 -14 0 -31 5 -38 12
-7 7 -12 24 -12 38 0 14 5 31 12 38 7 7 24 12 38 12 14 0 31 -5 38 -12z m2335
-60 c8 -12 7 -21 -2 -32 -18 -22 -38 -20 -51 5 -22 40 29 66 53 27z m-12848
-13 c0 -11 -8 -21 -17 -23 -14 -3 -18 3 -18 23 0 20 4 26 18 23 9 -2 17 -12
17 -23z m4705 -5 c11 -11 20 -31 20 -45 0 -30 -32 -65 -60 -65 -25 0 -70 42
-70 65 0 23 45 65 70 65 11 0 29 -9 40 -20z m398 -27 c-4 -22 -22 -20 -26 1
-2 10 3 16 13 16 10 0 15 -7 13 -17z m-5343 -53 c0 -30 -4 -35 -26 -38 -33 -4
-53 20 -45 53 6 22 11 26 39 23 29 -3 32 -6 32 -38z m15609 14 c19 -18 21 -45
4 -62 -17 -17 -44 -15 -62 4 -21 20 -20 30 4 54 24 24 34 25 54 4z m-2354 -14
c0 -13 -7 -20 -20 -20 -13 0 -20 7 -20 20 0 13 7 20 20 20 13 0 20 -7 20 -20z
m-8157 -22 c7 -21 -4 -38 -23 -38 -10 0 -20 6 -23 13 -7 20 4 37 23 37 10 0
20 -6 23 -12z m7927 -18 c41 -41 10 -110 -49 -110 -20 0 -36 9 -50 27 -51 63
41 141 99 83z m-9240 -24 c0 -8 -4 -17 -9 -21 -12 -7 -24 12 -16 25 9 15 25
12 25 -4z m-3632 -24 c2 -14 -2 -22 -12 -22 -19 0 -29 17 -22 36 8 22 30 12
34 -14z m13262 18 c0 -5 -4 -10 -10 -10 -5 0 -10 5 -10 10 0 6 5 10 10 10 6 0
10 -4 10 -10z m-9420 -38 c44 -36 21 -104 -35 -104 -35 0 -57 23 -57 58 0 28
32 64 57 64 7 0 23 -8 35 -18z m858 6 c18 -18 14 -53 -8 -73 -41 -37 -102 24
-64 66 19 21 54 25 72 7z m422 -12 c0 -3 -4 -8 -10 -11 -5 -3 -10 -1 -10 4 0
6 5 11 10 11 6 0 10 -2 10 -4z m7898 -60 c-2 -13 -10 -21 -23 -21 -23 0 -33
34 -14 45 20 13 40 -1 37 -24z m-13268 -1 c10 -12 10 -18 0 -30 -17 -20 -37
-19 -49 3 -18 34 24 57 49 27z m-235 -50 c46 -45 20 -115 -43 -117 -69 -2
-100 79 -46 121 35 27 59 26 89 -4z m5355 5 c0 -13 -7 -20 -20 -20 -19 0 -27
20 -13 33 13 14 33 6 33 -13z m-4957 -27 c9 -9 -13 -34 -24 -27 -14 8 -11 34
4 34 8 0 17 -3 20 -7z m13287 -7 c0 -20 -19 -31 -32 -18 -6 6 -7 15 -4 21 10
16 36 13 36 -3z m-8582 -72 c-19 -19 -45 -13 -55 12 -4 11 1 22 12 31 17 11
22 11 39 -7 19 -18 19 -21 4 -36z m5994 39 c22 -20 23 -51 1 -75 -22 -25 -59
-23 -77 4 -21 30 -20 44 4 68 24 24 47 25 72 3z m1913 -28 c14 -13 25 -34 25
-45 0 -11 -11 -32 -25 -45 -13 -14 -34 -25 -45 -25 -11 0 -32 11 -45 25 -14
13 -25 34 -25 45 0 11 11 32 25 45 13 14 34 25 45 25 11 0 32 -11 45 -25z
m-5577 -8 c4 -20 -25 -34 -40 -19 -15 15 -1 44 19 40 10 -2 19 -11 21 -21z
m5992 -15 c0 -13 -23 -32 -37 -32 -19 0 -27 28 -13 45 9 11 17 12 31 4 10 -5
19 -13 19 -17z m-13280 -8 c11 -12 10 -18 -3 -32 -16 -15 -18 -15 -34 0 -13
14 -14 20 -3 32 7 9 16 16 20 16 4 0 13 -7 20 -16z m6850 0 c0 -17 -22 -14
-28 4 -2 7 3 12 12 12 9 0 16 -7 16 -16z m4294 -5 c50 -39 26 -128 -38 -145
-53 -13 -115 49 -102 100 16 64 87 86 140 45z m-6437 -11 c29 -27 29 -65 1
-95 -27 -29 -65 -29 -95 -1 -29 27 -29 65 -1 95 27 29 65 29 95 1z m2326 -9
c28 -15 37 -28 37 -58 0 -57 -70 -82 -110 -39 -27 29 -25 54 6 83 30 28 37 30
67 14z m-7268 -34 c14 -13 25 -29 25 -35 0 -16 -21 -53 -34 -62 -36 -25 -96
11 -96 57 0 30 32 65 60 65 12 0 32 -11 45 -25z m4490 -5 c0 -18 -6 -26 -23
-28 -24 -4 -38 18 -28 44 3 9 15 14 28 12 17 -2 23 -10 23 -28z m865 15 c0 -8
-7 -15 -15 -15 -8 0 -15 7 -15 15 0 8 7 15 15 15 8 0 15 -7 15 -15z m2335 -15
c0 -8 -8 -16 -17 -18 -13 -2 -18 3 -18 18 0 15 5 20 18 18 9 -2 17 -10 17 -18z
m5133 4 c12 -8 22 -26 22 -39 0 -21 -32 -55 -52 -55 -14 0 -48 39 -48 55 0 14
37 55 50 55 3 0 16 -7 28 -16z m-1281 -26 c29 -27 29 -65 1 -95 -27 -28 -67
-30 -96 -3 -28 26 -28 67 0 97 27 29 65 29 95 1z m865 5 c34 -31 11 -93 -35
-93 -45 0 -76 67 -45 98 17 17 58 15 80 -5z m841 -1 c14 -16 15 -21 3 -37 -15
-20 -43 -15 -52 10 -6 15 11 45 26 45 4 0 14 -8 23 -18z m437 -3 c0 -5 -7 -9
-15 -9 -15 0 -20 12 -9 23 8 8 24 -1 24 -14z m2338 12 c8 -4 12 -19 10 -32 -4
-29 -45 -34 -61 -7 -19 30 19 60 51 39z m-4052 -9 c23 -15 34 -50 25 -75 -21
-54 -98 -48 -115 9 -13 43 53 91 90 66z m-11574 -17 c0 -5 -5 -11 -11 -13 -6
-2 -11 4 -11 13 0 9 5 15 11 13 6 -2 11 -8 11 -13z m4283 -10 c30 -29 32 -54
5 -83 -24 -26 -57 -28 -88 -6 -29 20 -29 67 0 94 29 27 54 25 83 -5z m2795 0
c34 -36 33 -90 -2 -120 -15 -13 -32 -25 -39 -27 -9 -3 -9 -9 0 -25 6 -12 13
-37 15 -55 3 -18 5 -34 5 -36 1 -2 11 4 23 12 12 9 33 16 46 16 33 0 72 -43
72 -80 0 -38 -39 -80 -75 -80 -30 0 -30 -1 -5 -42 11 -18 20 -41 20 -51 0 -34
-31 -79 -66 -93 -30 -12 -34 -18 -28 -37 18 -58 0 -108 -49 -133 -18 -9 -33
-17 -35 -19 -1 -1 5 -16 14 -33 13 -27 19 -30 34 -22 10 6 33 10 50 10 30 0
31 1 16 22 -37 53 1 128 64 128 41 0 80 -39 80 -80 0 -38 -39 -80 -75 -80 -30
0 -30 0 -4 -44 15 -25 19 -44 14 -65 -8 -37 -51 -81 -80 -81 -31 0 -37 -9 -20
-34 8 -11 15 -28 15 -38 0 -21 13 -23 42 -7 25 13 62 5 88 -21 43 -43 11 -140
-45 -140 -34 0 -36 -10 -9 -38 23 -25 29 -45 25 -84 -3 -22 12 -23 29 -3 18
21 66 19 90 -5 36 -36 19 -102 -30 -111 -44 -9 -90 30 -90 76 0 8 -12 2 -29
-16 -16 -16 -37 -29 -46 -29 -13 0 -16 -6 -11 -22 3 -13 6 -33 6 -46 0 -19 3
-21 19 -12 33 17 83 12 108 -12 48 -45 14 -148 -48 -148 -16 0 -19 -4 -14 -17
23 -57 24 -78 7 -112 -10 -21 -30 -42 -50 -51 -25 -11 -31 -20 -27 -35 2 -11
5 -35 5 -54 l0 -34 23 21 c16 15 36 22 62 22 52 0 85 -31 85 -80 0 -42 -39
-90 -71 -90 -20 0 -26 -24 -9 -35 6 -3 10 -26 10 -49 0 -49 -31 -91 -75 -102
-19 -5 -24 -11 -20 -23 4 -9 9 -28 12 -43 4 -23 8 -26 24 -18 55 30 129 -11
129 -72 0 -37 -48 -88 -83 -88 -35 0 -87 46 -87 76 0 28 -7 29 -34 9 -31 -24
-87 -19 -118 10 -15 14 -31 31 -35 39 -5 9 -18 12 -35 9 -26 -5 -28 -8 -22
-47 8 -51 8 -50 32 -37 55 29 122 -11 122 -72 0 -44 -41 -87 -82 -87 -35 0
-88 48 -88 80 0 20 -1 20 -22 6 -12 -9 -38 -16 -56 -16 -29 0 -33 -3 -27 -17
5 -10 10 -32 13 -50 5 -42 -33 -83 -78 -83 -33 0 -80 38 -80 64 0 24 -18 28
-42 12 -45 -32 -115 -9 -144 45 -11 23 -19 28 -27 20 -6 -6 -22 -11 -35 -11
-18 0 -23 -4 -18 -16 16 -42 16 -64 2 -93 -20 -37 -44 -51 -89 -51 -37 0 -87
37 -87 64 0 23 -13 26 -52 14 -35 -10 -35 -11 -30 -60 4 -41 1 -53 -18 -73
-46 -49 -130 -27 -153 38 -6 17 -9 17 -29 3 -12 -9 -37 -16 -56 -16 -32 0 -33
-1 -18 -22 24 -34 19 -66 -13 -99 -48 -48 -100 -35 -130 32 -16 36 -19 38 -37
24 -10 -8 -37 -15 -60 -15 -49 0 -91 33 -100 79 l-6 30 -34 -17 c-38 -17 -38
-19 -24 -57 7 -19 6 -34 -5 -55 -42 -80 -142 -81 -175 0 -14 34 -17 35 -44 15
-11 -8 -28 -15 -38 -15 -21 0 -21 2 -7 -39 8 -24 8 -39 -1 -62 -35 -84 -160
-58 -160 33 0 38 15 60 55 83 14 9 16 15 7 30 -6 11 -13 28 -16 37 -4 15 -10
16 -35 7 -26 -9 -29 -14 -21 -29 32 -61 -27 -150 -100 -150 -20 0 -20 -1 -6
-22 23 -32 20 -65 -9 -93 -68 -69 -170 31 -103 102 12 13 27 23 35 23 18 0 17
25 -2 40 -8 7 -15 21 -15 32 0 14 -5 18 -16 14 -9 -3 -32 -6 -51 -6 -36 0 -36
0 -17 -21 13 -14 19 -36 19 -66 0 -37 -5 -49 -28 -69 -51 -44 -136 -21 -151
41 -7 29 -7 29 -65 11 -26 -7 -40 -16 -33 -20 16 -9 15 -77 -1 -97 -16 -21
-51 -39 -77 -39 -28 0 -80 52 -80 80 0 21 -1 22 -25 6 -13 -9 -41 -16 -61 -16
-30 0 -44 7 -74 39 -34 35 -41 38 -71 32 -23 -5 -33 -12 -30 -22 16 -56 13
-79 -17 -109 -20 -20 -40 -30 -60 -30 -37 0 -92 43 -92 72 0 17 -4 19 -22 13
-13 -4 -40 -9 -60 -12 -36 -5 -37 -5 -22 -29 30 -46 -7 -114 -62 -114 -36 0
-74 37 -74 73 0 40 35 77 71 77 l28 0 -24 36 c-14 20 -25 43 -25 51 0 11 -6
13 -17 8 -10 -4 -26 -10 -36 -12 -13 -4 -16 -11 -10 -22 13 -29 8 -89 -11
-110 -9 -10 -31 -25 -47 -32 -43 -17 -95 8 -115 56 -14 33 -16 34 -37 21 -12
-8 -35 -17 -52 -20 -16 -2 -31 -5 -33 -5 -2 -1 4 -11 12 -23 22 -31 20 -52 -7
-84 -45 -52 -127 -23 -127 45 0 32 33 71 60 71 25 0 25 12 0 35 -11 10 -20 27
-20 37 0 16 -5 18 -37 12 -21 -4 -39 -8 -41 -9 -1 -1 2 -15 8 -31 21 -54 -9
-109 -65 -120 -46 -8 -91 17 -105 60 l-11 35 -34 -15 c-20 -8 -47 -11 -65 -8
-28 6 -73 47 -82 75 -3 9 -9 9 -27 0 -13 -7 -33 -10 -46 -7 -29 7 -40 -7 -20
-24 21 -17 19 -63 -4 -91 -13 -16 -29 -23 -55 -23 -43 0 -63 17 -72 61 -8 42
30 83 77 83 l33 0 -27 28 c-15 15 -27 36 -27 45 0 14 -7 16 -47 10 -27 -3 -49
-7 -51 -8 -1 -1 5 -15 14 -32 15 -25 15 -32 3 -58 -30 -63 -107 -68 -141 -8
-31 51 3 113 62 113 12 0 20 3 18 8 -13 26 -27 59 -32 74 -5 16 -8 16 -39 3
-19 -8 -37 -12 -40 -9 -3 3 -10 3 -16 -1 -7 -4 -5 -14 5 -30 18 -28 12 -76
-13 -96 -8 -7 -31 -13 -50 -13 -89 0 -99 123 -12 144 l21 5 -21 27 c-12 14
-21 36 -21 47 0 24 -7 25 -45 11 -53 -20 -125 35 -125 96 0 35 32 78 70 94 34
14 33 12 19 43 -10 22 -16 24 -57 19 -26 -2 -48 -6 -50 -7 -1 -1 5 -15 14 -32
15 -25 15 -32 3 -58 -20 -42 -61 -60 -96 -43 -15 7 -34 26 -42 42 -12 25 -11
33 2 61 16 34 63 55 89 39 6 -4 0 8 -15 28 -35 45 -36 96 -3 135 22 25 23 30
10 55 -8 16 -33 35 -59 47 -35 15 -49 29 -61 58 -15 35 -15 40 4 79 19 39 20
46 7 94 -8 29 -25 62 -39 75 -33 30 -33 58 -1 83 17 13 28 37 36 73 97 477
403 913 837 1193 175 114 444 225 655 270 50 12 77 22 77 31 0 21 22 30 34 13
8 -10 30 -14 76 -14 36 1 89 -3 118 -7 45 -8 51 -7 46 6 -4 12 5 17 42 23 43
6 105 4 359 -12 39 -2 125 -14 193 -25 68 -12 126 -19 128 -16 3 3 -31 58 -74
123 -44 66 -78 122 -75 127 2 4 21 7 42 7 22 0 44 6 51 15 14 17 47 19 82 7
13 -5 59 -6 102 -3 l80 6 0 40 c1 34 4 40 24 43 31 5 55 -17 49 -45 -3 -15 1
-23 9 -23 22 0 16 -18 -16 -47 -16 -14 -30 -30 -30 -34 0 -8 47 -5 128 7 19 3
32 11 32 19 0 8 5 15 10 15 6 0 10 -7 10 -16 0 -18 -4 -18 290 6 212 17 384
30 595 45 417 30 492 35 630 45 77 5 194 12 261 16 l121 6 6 -30 c4 -18 14
-33 25 -36 32 -10 54 -43 55 -79 l1 -35 35 24 c20 13 42 24 49 24 10 0 11 6 5
23 -23 66 14 127 77 127 26 0 43 -7 60 -25z m408 -42 c5 -18 -28 -29 -38 -12
-5 7 -6 17 -3 22 7 12 35 5 41 -10z m-7733 -38 c0 -30 -39 -27 -43 3 -3 20 0
23 20 20 15 -2 23 -10 23 -23z m11559 -17 c8 -14 7 -21 -6 -34 -30 -30 -75 9
-48 42 16 18 39 15 54 -8z m421 2 c0 -8 -8 -16 -17 -18 -13 -2 -18 3 -18 18 0
15 5 20 18 18 9 -2 17 -10 17 -18z m425 -1 c0 -5 -7 -9 -15 -9 -15 0 -20 12
-9 23 8 8 24 -1 24 -14z m-4910 -9 c11 -11 20 -29 20 -40 0 -25 -34 -60 -58
-60 -32 0 -62 29 -62 60 0 53 62 78 100 40z m3619 -7 c14 -26 -15 -56 -40 -42
-22 11 -24 30 -7 47 17 17 35 15 47 -5z m-11357 -30 c34 -31 11 -93 -35 -93
-27 0 -57 28 -57 53 0 48 56 73 92 40z m7888 -59 c11 -12 10 -18 -3 -32 -16
-15 -18 -15 -34 0 -13 14 -14 20 -3 32 7 9 16 16 20 16 4 0 13 -7 20 -16z
m-3652 -3 c20 -12 11 -55 -12 -59 -27 -6 -48 25 -35 49 10 20 26 24 47 10z
m-4063 -45 c0 -22 -14 -29 -34 -17 -19 12 -6 43 16 39 10 -2 18 -12 18 -22z
m4670 -46 c3 -5 -1 -10 -10 -10 -9 0 -13 5 -10 10 3 6 8 10 10 10 2 0 7 -4 10
-10z m3215 -5 c0 -8 -9 -15 -20 -15 -11 0 -20 7 -20 15 0 8 9 15 20 15 11 0
20 -7 20 -15z m-8152 -11 c28 -19 28 -55 1 -80 -19 -17 -23 -17 -47 -3 -36 20
-41 61 -10 83 28 20 28 20 56 0z m7900 -90 c4 -29 -28 -41 -45 -18 -10 13 -10
21 -1 31 16 19 42 12 46 -13z m8336 -6 c8 -14 7 -21 -6 -34 -30 -30 -75 9 -48
42 16 18 39 15 54 -8z m-16054 -28 c0 -13 -7 -20 -20 -20 -13 0 -20 7 -20 20
0 13 7 20 20 20 13 0 20 -7 20 -20z m7888 -33 c4 -20 -25 -34 -40 -19 -15 15
-1 44 19 40 10 -2 19 -11 21 -21z m-8125 -39 c13 -42 -40 -76 -70 -45 -20 19
-10 64 15 70 21 4 49 -8 55 -25z m7878 -9 c49 -26 42 -97 -11 -119 -32 -13
-63 -2 -80 30 -16 29 -12 49 15 75 26 27 46 31 76 14z m-7725 -80 c3 -6 0 -17
-7 -25 -18 -17 -44 -2 -36 20 7 18 33 21 43 5z m7904 -59 c0 -24 -26 -38 -42
-22 -16 16 -2 42 22 42 13 0 20 -7 20 -20z m-8156 -6 c31 -31 13 -74 -31 -74
-16 0 -27 9 -35 26 -11 23 -10 29 11 45 28 23 35 23 55 3z m8326 -65 c0 -12
-29 -24 -37 -16 -3 4 -3 13 0 21 6 16 37 11 37 -5z m-8165 -54 c0 -28 -29 -25
-33 3 -3 19 0 23 15 20 10 -2 18 -12 18 -23z m7909 -38 c16 -25 -16 -56 -38
-37 -19 15 -20 32 -4 48 15 15 28 11 42 -11z m-8150 -36 c33 -36 -10 -94 -53
-72 -27 15 -34 41 -16 67 19 29 46 31 69 5z m16484 -9 c4 -28 -24 -40 -45 -19
-14 13 -14 19 -3 32 18 22 44 15 48 -13z m-8163 -42 c9 -15 -14 -40 -31 -33
-22 8 -18 43 5 43 11 0 23 -5 26 -10z m-8157 -43 c4 -20 -25 -34 -40 -19 -15
15 -1 44 19 40 10 -2 19 -11 21 -21z m7922 -7 c29 -29 26 -74 -6 -99 -15 -12
-32 -21 -39 -21 -7 0 -24 9 -39 21 -48 38 -22 119 39 119 14 0 34 -9 45 -20z
m-8172 -56 c24 -17 30 -62 10 -82 -7 -7 -25 -12 -41 -12 -53 0 -77 65 -35 94
12 9 27 16 33 16 6 0 21 -7 33 -16z m8322 -74 c0 -24 -26 -38 -42 -22 -16 16
-2 42 22 42 13 0 20 -7 20 -20z m-8142 -53 c4 -20 -25 -34 -40 -19 -15 15 -1
44 19 40 10 -2 19 -11 21 -21z m8322 -37 c0 -11 -7 -20 -15 -20 -8 0 -15 9
-15 20 0 11 7 20 15 20 8 0 15 -9 15 -20z m-8565 -4 c41 -30 14 -106 -39 -106
-28 0 -56 29 -56 58 0 52 53 79 95 48z m8323 -72 c2 -11 -4 -26 -12 -33 -31
-26 -71 14 -45 45 17 21 53 14 57 -12z m-8170 -62 c3 -16 -2 -22 -17 -22 -24
0 -35 15 -27 36 9 23 40 13 44 -14z m16462 18 c0 -5 -4 -10 -10 -10 -5 0 -10
5 -10 10 0 6 5 10 10 10 6 0 10 -4 10 -10z m-8130 -50 c0 -13 -7 -20 -20 -20
-13 0 -20 7 -20 20 0 13 7 20 20 20 13 0 20 -7 20 -20z m-8170 -55 c0 -8 -4
-15 -10 -15 -5 0 -10 7 -10 15 0 8 5 15 10 15 6 0 10 -7 10 -15z m-243 -71 c3
-8 -1 -22 -9 -30 -13 -14 -17 -14 -32 1 -13 13 -14 20 -5 31 15 19 38 18 46
-2z m8331 -48 c-2 -13 -10 -21 -23 -21 -23 0 -33 34 -14 45 20 13 40 -1 37
-24z m-8168 -52 c0 -8 -7 -14 -15 -14 -15 0 -21 21 -9 33 10 9 24 -2 24 -19z
m8333 -20 c9 -10 -4 -34 -19 -34 -8 0 -14 9 -14 20 0 19 19 27 33 14z m-8585
-60 c2 -12 -4 -24 -12 -27 -19 -7 -40 18 -32 39 8 22 40 13 44 -12z m8340 -6
c19 -19 14 -56 -8 -68 -43 -23 -83 17 -60 60 12 22 49 27 68 8z m-8155 -72 c8
-21 -17 -40 -31 -23 -9 10 -8 17 0 25 16 16 25 15 31 -2z m8315 -44 c3 -16 -2
-22 -16 -22 -24 0 -35 23 -19 39 16 16 31 8 35 -17z m-8579 -41 c25 -25 17
-59 -15 -67 -14 -4 -31 -1 -39 6 -20 17 -19 57 3 69 24 14 29 14 51 -8z m8349
-7 c27 -19 30 -78 5 -106 -23 -25 -77 -24 -103 4 -58 63 26 152 98 102z
m-8170 -106 c-2 -13 -10 -23 -18 -23 -8 0 -16 10 -18 23 -3 17 2 22 18 22 16
0 21 -5 18 -22z m8332 -4 c11 -12 10 -18 -3 -32 -16 -15 -18 -15 -34 0 -13 14
-14 20 -3 32 7 9 16 16 20 16 4 0 13 -7 20 -16z m-8568 -36 c42 -33 15 -108
-38 -108 -28 0 -64 32 -64 58 0 50 63 80 102 50z m8735 -72 c-4 -9 -11 -16
-17 -16 -17 0 -24 31 -9 41 18 11 34 -5 26 -25z m-5793 -19 c12 -9 17 -23 14
-47 -2 -27 -9 -37 -30 -44 -52 -18 -89 44 -51 86 19 21 42 23 67 5z m-2789
-42 c0 -30 -39 -27 -43 3 -3 20 0 23 20 20 15 -2 23 -10 23 -23z m8345 -5 c11
-11 20 -24 20 -28 0 -14 -40 -52 -55 -52 -15 0 -55 38 -55 52 0 14 39 48 55
48 8 0 24 -9 35 -20z m-8180 -86 c0 -16 -16 -19 -25 -4 -8 13 4 32 16 25 5 -4
9 -13 9 -21z m8338 -12 c3 -16 -2 -22 -17 -22 -24 0 -35 15 -27 36 9 23 40 13
44 -14z m-230 -48 c29 -20 30 -76 2 -104 -24 -24 -77 -26 -102 -3 -23 20 -24
80 -1 105 20 22 71 24 101 2z m-8355 -6 c7 -21 -4 -38 -23 -38 -23 0 -34 16
-26 35 7 18 43 20 49 3z m8747 -33 c0 -8 -4 -15 -9 -15 -13 0 -22 16 -14 24
11 11 23 6 23 -9z m-5771 -21 c12 -15 21 -34 21 -44 0 -32 -39 -70 -72 -70
-44 0 -68 25 -68 71 0 67 78 95 119 43z m-2809 -44 c0 -13 -7 -20 -20 -20 -13
0 -20 7 -20 20 0 13 7 20 20 20 13 0 20 -7 20 -20z m8335 -35 c0 -21 -31 -33
-46 -18 -5 5 -7 17 -3 27 9 24 49 17 49 -9z m8343 3 c7 -7 12 -24 12 -38 0
-48 -45 -67 -82 -33 -22 20 -23 41 -1 65 18 21 53 24 71 6z m-16918 -18 c24
-24 25 -47 3 -72 -20 -22 -51 -23 -75 -1 -22 20 -23 51 -1 75 21 24 48 23 73
-2z m8758 -73 c2 -12 -3 -17 -17 -17 -15 0 -21 6 -21 21 0 25 33 22 38 -4z
m-8585 -41 c7 -17 -18 -40 -33 -31 -5 3 -10 15 -10 26 0 23 35 27 43 5z m2777
-11 c10 -12 10 -18 0 -30 -16 -20 -36 -19 -44 1 -6 16 9 44 24 44 4 0 13 -7
20 -15z m5563 -16 c15 -24 1 -49 -27 -49 -31 0 -48 27 -34 53 11 22 46 19 61
-4z m5559 4 c43 -39 0 -105 -56 -84 -21 9 -26 17 -26 45 0 52 45 73 82 39z
m-14138 -35 c37 -34 39 -76 4 -108 -29 -27 -64 -25 -93 5 -38 38 -30 84 20
113 29 17 41 15 69 -10z m14546 -3 c0 -8 -7 -15 -15 -15 -8 0 -15 7 -15 15 0
8 7 15 15 15 8 0 15 -7 15 -15z m-6222 -21 c43 -30 20 -104 -33 -104 -56 0
-75 82 -25 107 32 16 31 16 58 -3z m-7918 -15 c0 -5 -7 -9 -15 -9 -15 0 -20
12 -9 23 8 8 24 -1 24 -14z m13897 -4 c32 -23 35 -54 8 -81 -13 -13 -31 -24
-40 -24 -21 0 -55 36 -55 60 0 22 33 60 53 60 7 0 22 -7 34 -15z m-5567 -31
c0 -8 -7 -14 -15 -14 -15 0 -21 21 -9 33 10 9 24 -2 24 -19z m5975 6 c3 -5 1
-10 -4 -10 -6 0 -11 5 -11 10 0 6 2 10 4 10 3 0 8 -4 11 -10z m-14557 -53 c4
-20 -25 -34 -40 -19 -15 15 -1 44 19 40 10 -2 19 -11 21 -21z m7481 -15 c30
-23 31 -76 3 -104 -29 -29 -80 -28 -104 1 -55 69 33 159 101 103z m422 -2 c23
-13 25 -52 4 -70 -20 -17 -61 -5 -68 19 -5 21 17 61 34 61 6 0 19 -5 30 -10z
m423 -8 c8 -13 -11 -35 -23 -28 -16 10 -14 36 3 36 8 0 17 -4 20 -8z m5990
-18 c8 -21 -1 -34 -24 -34 -22 0 -34 15 -26 35 7 20 42 19 50 -1z m-14149 -44
c0 -8 -8 -16 -17 -18 -13 -2 -18 3 -18 18 0 15 5 20 18 18 9 -2 17 -10 17 -18z
m2775 -15 c0 -8 -7 -15 -15 -15 -8 0 -15 7 -15 15 0 8 7 15 15 15 8 0 15 -7
15 -15z m4274 -6 c48 -38 23 -109 -39 -109 -37 0 -65 28 -65 66 0 23 42 64 65
64 7 0 24 -9 39 -21z m434 -22 c6 -28 -16 -49 -39 -36 -19 10 -25 39 -12 53
13 13 48 1 51 -17z m9194 6 c10 -9 18 -23 18 -31 0 -21 -29 -52 -48 -52 -23 0
-52 30 -52 55 0 43 47 60 82 28z m-2362 -13 c0 -13 -7 -20 -20 -20 -19 0 -27
20 -13 33 13 14 33 6 33 -13z m-6420 -5 c0 -8 -4 -15 -10 -15 -5 0 -10 7 -10
15 0 8 5 15 10 15 6 0 10 -7 10 -15z m-8132 -7 c28 -28 1 -98 -36 -98 -25 0
-52 31 -52 60 0 33 17 50 50 50 14 0 31 -5 38 -12z m3194 -5 c34 -31 17 -83
-27 -83 -43 0 -60 47 -28 82 20 22 31 23 55 1z m11118 -33 c24 -24 25 -47 3
-72 -20 -22 -51 -23 -75 -1 -25 22 -23 59 4 77 30 21 44 20 68 -4z m-7696 -22
c21 -29 20 -77 -1 -100 -20 -23 -80 -24 -105 -1 -24 22 -24 77 2 103 28 28 84
27 104 -2z m406 -18 c11 -11 20 -24 20 -30 0 -14 -37 -50 -52 -50 -16 0 -48
31 -48 47 0 15 35 53 50 53 6 0 19 -9 30 -20z m413 -15 c1 -5 -6 -11 -15 -13
-11 -2 -18 3 -18 13 0 17 30 18 33 0z m-7277 -6 c8 -14 -21 -43 -35 -35 -19
12 -13 46 8 46 11 0 23 -5 27 -11z m14328 -48 c10 -16 -6 -42 -23 -39 -9 2
-17 13 -19 26 -3 16 2 22 17 22 11 0 22 -4 25 -9z m-8142 -28 c36 -33 10 -93
-42 -93 -34 0 -50 17 -50 55 0 17 5 36 12 43 17 17 58 15 80 -5z m415 -9 c3
-8 -2 -23 -11 -32 -15 -15 -17 -15 -32 0 -21 21 -11 48 16 48 11 0 23 -7 27
-16z m413 6 c0 -5 -4 -10 -10 -10 -5 0 -10 5 -10 10 0 6 5 10 10 10 6 0 10 -4
10 -10z m7100 -30 c26 -49 -10 -110 -65 -110 -24 0 -39 7 -54 26 -24 31 -26
43 -10 78 22 47 105 51 129 6z m-13940 15 c0 -8 -4 -15 -9 -15 -13 0 -22 16
-14 24 11 11 23 6 23 -9z m14320 -56 c0 -5 -7 -9 -15 -9 -15 0 -20 12 -9 23 8
8 24 -1 24 -14z m-8998 -26 c20 -18 24 -63 6 -81 -30 -30 -98 -1 -98 41 0 48
56 73 92 40z m416 5 c17 -17 15 -43 -4 -59 -31 -26 -70 25 -44 56 15 18 32 19
48 3z m-5994 -4 c21 -8 21 -40 0 -48 -21 -8 -34 1 -34 23 0 28 9 34 34 25z
m5146 -14 c26 -26 25 -60 -1 -89 -28 -30 -75 -25 -102 10 -47 64 46 136 103
79z m1270 -10 c0 -5 -7 -10 -15 -10 -8 0 -15 5 -15 10 0 6 7 10 15 10 8 0 15
-4 15 -10z m-2574 -36 c37 -55 -25 -117 -80 -80 -30 19 -35 65 -10 90 25 25
71 20 90 -10z m10484 6 c0 -24 -26 -38 -42 -22 -16 16 -2 42 22 42 13 0 20 -7
20 -20z m-14147 -26 c9 -10 -4 -34 -18 -34 -17 0 -28 17 -20 30 7 11 28 13 38
4z m4705 -62 c4 -25 -37 -56 -62 -46 -9 3 -19 18 -23 32 -4 19 -1 30 17 44 20
16 25 17 44 5 12 -8 22 -24 24 -35z m411 34 c23 -28 -17 -68 -45 -45 -17 14
-18 31 -2 47 16 16 33 15 47 -2z m-1285 -22 c29 -29 13 -74 -25 -74 -19 0 -49
25 -49 41 0 12 37 49 49 49 5 0 17 -7 25 -16z m427 6 c26 -14 24 -55 -3 -74
-19 -13 -25 -14 -43 -2 -27 18 -32 56 -9 73 22 16 30 16 55 3z m1289 -5 c0 -8
-4 -15 -9 -15 -13 0 -22 16 -14 24 11 11 23 6 23 -9z m11134 -4 c22 -25 13
-58 -20 -73 -19 -9 -28 -8 -44 7 -22 20 -26 55 -8 73 18 18 53 14 72 -7z
m-16911 -19 c54 -47 -18 -137 -78 -98 -46 30 -41 97 8 115 25 9 44 5 70 -17z
m14547 8 c0 -13 -7 -20 -20 -20 -13 0 -20 7 -20 20 0 13 7 20 20 20 13 0 20
-7 20 -20z m-232 -48 c20 -26 15 -70 -12 -87 -67 -44 -132 45 -69 94 28 23 59
20 81 -7z m-14171 -73 c16 -16 5 -39 -17 -39 -23 0 -34 16 -26 35 6 18 28 19
43 4z m14313 -34 c15 -18 6 -45 -13 -45 -8 0 -20 7 -27 15 -10 12 -10 18 0 30
16 19 24 19 40 0z m-14142 -52 c-2 -10 -10 -18 -18 -18 -8 0 -16 8 -18 18 -2
12 3 17 18 17 15 0 20 -5 18 -17z m14310 -50 c-4 -22 -22 -20 -26 1 -2 10 3
16 13 16 10 0 15 -7 13 -17z m-14538 -34 c15 -27 -11 -69 -44 -69 -54 0 -74
73 -27 97 29 14 55 4 71 -28z m14295 -54 c0 -25 -4 -30 -24 -30 -28 0 -47 25
-38 49 5 12 16 16 34 14 24 -3 28 -8 28 -33z m-14131 -34 c10 -16 -6 -42 -23
-39 -9 2 -17 13 -19 26 -3 16 2 22 17 22 11 0 22 -4 25 -9z m14314 -48 c5 -17
-26 -29 -40 -15 -6 6 -7 15 -3 22 9 14 37 9 43 -7z m2345 -23 c7 -28 -15 -52
-44 -48 -17 2 -25 10 -27 27 -7 46 60 64 71 21z m-16493 -15 c0 -8 -7 -15 -15
-15 -8 0 -15 7 -15 15 0 8 7 15 15 15 8 0 15 -7 15 -15z m13915 -21 c32 -34
32 -58 0 -89 -30 -31 -62 -32 -92 -3 -31 29 -30 71 3 97 36 28 60 26 89 -5z
m-14167 -56 c19 -19 14 -46 -8 -53 -22 -7 -50 9 -50 29 0 15 20 36 35 36 6 0
16 -5 23 -12z m14312 -44 c11 -12 10 -18 -3 -32 -16 -15 -18 -15 -34 0 -13 14
-14 20 -3 32 7 9 16 16 20 16 4 0 13 -7 20 -16z m-3660 -28 c0 -3 -4 -8 -10
-11 -5 -3 -10 -1 -10 4 0 6 5 11 10 11 6 0 10 -2 10 -4z m-10480 -36 c0 -13
-7 -20 -19 -20 -22 0 -35 15 -26 30 12 19 45 11 45 -10z m14308 -37 c-2 -10
-10 -18 -18 -18 -8 0 -16 8 -18 18 -2 12 3 17 18 17 15 0 20 -5 18 -17z
m-14148 -33 c0 -5 -7 -10 -15 -10 -8 0 -15 5 -15 10 0 6 7 10 15 10 8 0 15 -4
15 -10z m13913 -41 c14 -23 1 -67 -23 -74 -23 -7 -55 8 -64 31 -4 9 1 28 9 41
18 28 61 29 78 2z m-14154 -43 c9 -11 10 -20 1 -36 -13 -24 -38 -23 -53 1 -23
37 25 68 52 35z m14309 -49 c4 -20 -25 -34 -40 -19 -15 15 -1 44 19 40 10 -2
19 -11 21 -21z m2362 -36 c0 -26 -25 -44 -50 -36 -25 8 -27 50 -3 64 23 12 53
-4 53 -28z m-16505 -21 c0 -8 -10 -16 -22 -18 -18 -3 -23 2 -23 18 0 16 5 21
23 18 12 -2 22 -10 22 -18z m14323 -32 c-6 -18 -28 -21 -28 -4 0 9 7 16 16 16
9 0 14 -5 12 -12z m-250 -106 c3 -16 -2 -22 -17 -22 -24 0 -35 15 -27 36 9 23
40 13 44 -14z m-14134 -19 c10 -25 -22 -55 -45 -42 -24 12 -25 45 -2 57 21 12
39 6 47 -15z m14304 -66 c2 -12 -3 -17 -17 -17 -15 0 -21 6 -21 21 0 25 33 22
38 -4z m-14140 -30 c4 -20 -25 -34 -40 -19 -15 15 -1 44 19 40 10 -2 19 -11
21 -21z m13904 -14 c39 -35 7 -98 -48 -91 -18 2 -34 13 -43 29 -13 24 -13 29
2 53 20 30 61 35 89 9z m-13744 -74 c-2 -6 -8 -10 -13 -10 -5 0 -11 4 -13 10
-2 6 4 11 13 11 9 0 15 -5 13 -11z m13900 -52 c2 -9 -4 -20 -12 -23 -21 -8
-46 13 -39 32 8 20 47 13 51 -9z m-14139 -6 c23 -23 18 -58 -10 -66 -50 -16
-83 31 -48 66 10 10 24 19 29 19 6 0 19 -9 29 -19z m16489 -9 c4 -28 -24 -40
-45 -19 -14 13 -14 19 -3 32 18 22 44 15 48 -13z m-2188 -72 c0 -11 -7 -20
-15 -20 -8 0 -15 9 -15 20 0 11 7 20 15 20 8 0 15 -9 15 -20z m-14134 -21 c8
-14 -21 -43 -35 -35 -19 12 -13 46 8 46 11 0 23 -5 27 -11z m13888 -51 c8 -14
7 -21 -5 -33 -28 -29 -73 11 -48 42 15 17 38 13 53 -9z m-13708 -39 c8 -14
-18 -31 -30 -19 -9 9 0 30 14 30 5 0 12 -5 16 -11z m-226 -58 c23 -44 -2 -91
-50 -91 -33 0 -52 21 -52 55 0 36 20 55 58 55 23 0 37 -6 44 -19z m14118 2 c5
-17 -26 -29 -40 -15 -6 6 -7 15 -3 22 9 14 37 9 43 -7z m-228 -45 c59 -64 -37
-149 -102 -91 -10 9 -18 29 -18 45 0 61 78 91 120 46z m384 -49 c-3 -5 -10 -7
-15 -3 -5 3 -7 10 -3 15 3 5 10 7 15 3 5 -3 7 -10 3 -15z m-14124 -14 c10 -12
10 -18 0 -30 -27 -32 -71 -8 -56 30 3 8 14 15 24 15 11 0 25 -7 32 -15z m170
-101 c0 -20 -30 -30 -40 -13 -11 17 7 40 26 32 8 -3 14 -12 14 -19z m160 -70
c0 -9 -5 -14 -12 -12 -18 6 -21 28 -4 28 9 0 16 -7 16 -16z m-239 -44 c4 0 15
-12 23 -27 17 -35 6 -69 -29 -85 -32 -14 -72 2 -84 34 -16 43 26 94 67 82 8
-2 18 -4 23 -4z m183 -116 c31 -30 8 -69 -36 -62 -26 3 -37 41 -18 64 16 18
35 18 54 -2z m166 -94 c0 -13 -7 -20 -20 -20 -13 0 -20 7 -20 20 0 13 7 20 20
20 13 0 20 -7 20 -20z m170 -84 c0 -8 -5 -18 -11 -22 -14 -8 -33 11 -25 25 10
16 36 13 36 -3z m170 -91 c0 -8 -7 -15 -15 -15 -8 0 -15 7 -15 15 0 8 7 15 15
15 8 0 15 -7 15 -15z m-220 -35 c43 -43 7 -120 -55 -120 -36 0 -75 36 -75 70
0 10 9 29 21 44 26 33 79 36 109 6z m400 -50 c0 -5 -4 -10 -10 -10 -5 0 -10 5
-10 10 0 6 5 10 10 10 6 0 10 -4 10 -10z m-226 -31 c32 -25 36 -77 7 -103 -28
-25 -79 -17 -104 16 -17 23 -18 31 -8 56 12 27 41 50 67 51 6 1 23 -8 38 -20z
m181 -89 c41 -46 10 -120 -50 -120 -39 0 -68 30 -68 70 0 40 29 70 68 70 19 0
39 -8 50 -20z m395 -35 c0 -8 -7 -15 -15 -15 -8 0 -15 7 -15 15 0 8 7 15 15
15 8 0 15 -7 15 -15z m188 -61 c20 -36 -10 -71 -49 -59 -19 6 -27 54 -12 68
12 13 52 7 61 -9z m198 -69 c18 -19 23 -31 19 -48 -16 -53 -64 -69 -100 -33
-31 31 -32 50 0 81 31 32 50 31 81 0z"/>
<path d="M9447 13777 c-25 -20 -27 -24 -15 -53 11 -30 14 -31 40 -22 20 7 27
15 24 25 -3 8 -6 28 -6 44 0 35 -6 36 -43 6z"/>
<path d="M9633 13681 c-29 -14 -32 -20 -27 -46 8 -38 8 -39 32 -26 27 14 65
14 80 -1 21 -21 13 2 -8 25 -12 12 -23 32 -26 44 -7 26 -7 26 -51 4z"/>
<path d="M9556 13511 c-4 -6 -16 -11 -27 -11 -16 0 -18 -5 -13 -27 9 -36 6
-34 43 -27 29 6 32 10 26 33 -8 32 -21 46 -29 32z"/>
<path d="M9457 13333 c-4 -3 -7 -24 -7 -46 0 -38 1 -39 27 -32 37 9 39 12 25
35 -7 11 -12 27 -12 35 0 15 -21 21 -33 8z"/>
<path d="M9552 13058 c-13 -7 -21 -17 -17 -26 3 -7 5 -20 5 -27 0 -10 10 -12
38 -8 20 3 38 7 40 8 6 5 -28 65 -36 64 -4 0 -17 -5 -30 -11z"/>
<path d="M9482 12888 c-7 -7 -12 -22 -12 -35 0 -18 6 -23 25 -23 23 0 25 3 19
28 -9 36 -18 44 -32 30z"/>
<path d="M9671 12816 c-8 -9 -21 -16 -31 -16 -26 0 -29 -9 -18 -43 6 -18 12
-33 13 -35 1 -1 15 4 31 13 16 8 40 15 53 15 22 0 23 2 9 13 -9 6 -22 25 -30
40 -13 25 -16 27 -27 13z"/>
<path d="M9563 12634 c-30 -13 -32 -17 -26 -46 3 -18 7 -34 8 -36 1 -1 19 5
39 13 27 11 36 20 32 31 -3 9 -6 24 -6 35 0 22 -4 22 -47 3z"/>
<path d="M9497 12473 c-11 -10 -8 -61 3 -68 6 -4 17 -4 24 -2 11 4 11 13 2 41
-11 36 -17 42 -29 29z"/>
<path d="M9685 12386 c-11 -9 -28 -16 -38 -16 -14 0 -16 -5 -11 -27 10 -41 13
-44 34 -33 10 5 28 10 39 10 22 0 27 10 12 26 -5 5 -11 19 -13 32 -3 21 -4 22
-23 8z"/>
<path d="M9572 12202 c-26 -8 -26 -7 -17 -44 6 -24 9 -26 36 -16 20 7 28 15
25 25 -3 8 -6 21 -6 29 0 15 -3 15 -38 6z"/>
<path d="M9520 11990 c0 -5 5 -10 11 -10 5 0 7 5 4 10 -3 6 -8 10 -11 10 -2 0
-4 -4 -4 -10z"/>
<path d="M9699 11970 c-9 -10 -24 -22 -34 -27 -12 -7 -14 -17 -9 -36 6 -25 9
-27 43 -21 20 4 37 7 38 8 4 3 -11 96 -16 95 -3 0 -13 -9 -22 -19z"/>
<path d="M9578 11773 c-31 -5 -34 -13 -15 -46 6 -12 13 -23 13 -25 1 -2 48 16
62 24 6 3 -18 54 -25 53 -5 -1 -20 -4 -35 -6z"/>
<path d="M9249 11496 c-24 -8 -26 -13 -21 -50 2 -23 6 -42 7 -43 1 -2 56 15
73 23 1 0 -6 19 -15 40 -17 36 -20 39 -44 30z"/>
<path d="M8807 11434 c-3 -3 -3 -12 -1 -19 4 -10 12 -11 35 -3 16 5 29 14 29
19 0 10 -53 13 -63 3z"/>
<path d="M8536 11381 c-5 -8 12 -71 18 -71 2 0 17 5 33 11 29 10 30 12 20 40
-9 22 -18 29 -39 29 -15 0 -29 -4 -32 -9z"/>
<path d="M4884 11348 c3 -13 6 -26 6 -30 0 -11 14 -10 46 2 26 10 26 11 9 30
-10 11 -29 20 -43 20 -20 0 -23 -4 -18 -22z"/>
<path d="M8292 11296 c-14 -7 -20 -16 -16 -26 4 -8 9 -29 13 -46 l6 -31 37 17
c35 15 37 18 23 36 -8 10 -15 29 -15 42 0 24 -12 26 -48 8z"/>
<path d="M5055 11269 c4 -6 10 -21 14 -35 6 -24 6 -24 34 -5 26 17 27 19 12
35 -18 18 -70 23 -60 5z"/>
<path d="M7839 11263 c-2 -13 3 -58 6 -61 2 -2 17 4 35 13 21 11 30 21 26 31
-3 9 -6 18 -6 20 0 7 -60 4 -61 -3z"/>
<path d="M5252 11202 c-9 -7 -10 -15 -3 -35 9 -23 14 -26 43 -20 43 8 43 8 24
38 -17 25 -40 31 -64 17z"/>
<path d="M7172 11172 c-19 -3 -23 -8 -18 -25 3 -12 6 -29 6 -38 0 -14 5 -15
40 -6 22 6 40 14 40 17 0 3 -10 17 -23 31 -15 17 -29 24 -45 21z"/>
<path d="M5434 11135 c-31 -10 -32 -11 -18 -38 17 -31 15 -30 47 -18 20 8 23
15 20 35 -7 33 -11 35 -49 21z"/>
<path d="M6730 11121 c0 -17 3 -18 29 -8 34 13 31 27 -5 27 -17 0 -24 -6 -24
-19z"/>
<path d="M5854 11116 c-11 -29 8 -44 45 -34 29 8 32 11 20 23 -24 22 -58 28
-65 11z"/>
<path d="M6284 11109 c-10 -17 14 -35 28 -21 7 7 20 12 30 12 10 0 18 5 18 10
0 14 -67 13 -76 -1z"/>
<path d="M6907 11083 c-11 -3 -16 -10 -13 -20 3 -8 6 -26 6 -40 0 -23 3 -24
33 -18 46 10 46 11 28 50 -16 34 -20 37 -54 28z"/>
<path d="M6033 11067 l-32 -9 17 -37 c9 -20 17 -37 17 -38 1 -2 14 3 28 10 23
10 26 16 21 42 -8 40 -14 44 -51 32z"/>
<path d="M6487 11067 c-19 -6 -26 -14 -23 -24 3 -8 6 -24 6 -35 0 -17 4 -19
33 -13 41 9 42 11 29 38 -6 12 -12 27 -14 33 -2 8 -12 8 -31 1z"/>
<path d="M5612 11052 c-20 -3 -22 -7 -16 -40 4 -20 8 -38 9 -40 1 -1 16 3 33
9 29 10 30 12 20 37 -16 36 -19 39 -46 34z"/>
<path d="M16613 17253 c-21 -4 -21 -5 -5 -36 9 -18 17 -33 18 -35 0 -1 15 3
33 9 18 6 30 16 26 23 -3 6 -8 19 -11 29 -6 17 -17 19 -61 10z"/>
<path d="M10230 17243 c-8 -2 -21 -7 -29 -9 -11 -4 -12 -7 -3 -16 7 -7 12 -20
12 -30 0 -15 5 -17 28 -12 50 12 53 17 29 46 -12 14 -29 24 -37 21z"/>
<path d="M16204 17240 c-17 -6 -20 -15 -16 -40 4 -30 7 -32 35 -26 38 8 44 13
29 28 -7 7 -12 20 -12 30 0 20 -5 21 -36 8z"/>
<path d="M9760 17197 c0 -34 9 -38 42 -21 24 12 27 18 17 30 -6 8 -22 14 -35
14 -18 0 -24 -5 -24 -23z"/>
<path d="M9340 17190 c-22 -14 0 -29 33 -23 22 4 25 8 16 19 -13 16 -28 17
-49 4z"/>
<path d="M9967 17162 c-15 -9 -25 -23 -22 -30 3 -8 5 -25 5 -39 0 -23 3 -24
33 -18 44 10 50 15 36 31 -6 8 -14 27 -18 43 -6 30 -6 30 -34 13z"/>
<path d="M10382 17173 c-18 -3 -32 -7 -30 -11 2 -4 10 -24 18 -45 10 -27 18
-36 30 -31 8 4 25 9 38 11 26 6 28 16 7 33 -8 7 -15 21 -15 31 0 11 -3 18 -7
17 -5 0 -23 -3 -41 -5z"/>
<path d="M8950 17160 c0 -5 7 -10 15 -10 8 0 15 5 15 10 0 6 -7 10 -15 10 -8
0 -15 -4 -15 -10z"/>
<path d="M9085 17136 c-16 -5 -31 -11 -33 -12 -2 -1 5 -19 16 -40 12 -23 22
-33 26 -25 4 6 16 11 27 11 18 0 20 4 14 33 -9 42 -14 46 -50 33z"/>
<path d="M9519 17136 c-21 -9 -24 -15 -18 -31 4 -11 8 -33 8 -48 l1 -28 26 20
c15 12 35 21 45 21 17 0 16 4 -7 37 -14 21 -26 38 -27 39 -1 1 -14 -4 -28 -10z"/>
<path d="M15187 16863 c-4 -3 -7 -17 -7 -30 0 -18 6 -23 24 -23 23 0 24 2 15
30 -11 30 -20 36 -32 23z"/>
<path d="M8323 16832 c-23 -3 -29 -18 -15 -39 9 -15 62 -5 62 12 0 19 -22 31
-47 27z"/>
<path d="M15360 16784 c-14 -7 -29 -15 -33 -17 -5 -1 -4 -14 1 -28 9 -22 15
-24 51 -21 46 5 45 3 29 49 -13 37 -13 37 -48 17z"/>
<path d="M8237 16673 c-4 -3 -7 -19 -7 -35 0 -26 3 -29 23 -22 29 9 29 8 21
38 -6 25 -23 34 -37 19z"/>
<path d="M15252 16602 c-8 -6 -10 -19 -6 -40 7 -37 5 -36 39 -20 20 9 25 17
21 32 -3 12 -6 24 -6 29 0 9 -32 9 -48 -1z"/>
<path d="M5367 16503 c-14 -4 -17 -11 -13 -26 3 -12 6 -30 6 -40 0 -17 2 -17
33 -1 17 9 33 18 35 19 1 1 -3 14 -9 29 -12 26 -18 28 -52 19z"/>
<path d="M8370 16453 c-9 -10 -26 -25 -38 -33 -19 -13 -21 -20 -13 -45 5 -18
14 -28 22 -26 8 2 26 6 42 9 28 5 33 12 18 28 -5 5 -11 26 -13 47 -3 35 -4 37
-18 20z"/>
<path d="M5555 16441 c-16 -9 -31 -17 -33 -18 -4 -2 27 -63 33 -63 2 0 15 4
30 10 22 8 24 14 19 37 -11 47 -16 51 -49 34z"/>
<path d="M15207 16447 c-27 -19 -20 -73 8 -69 27 5 26 4 18 46 -7 34 -10 36
-26 23z"/>
<path d="M15372 16354 c-24 -10 -32 -19 -28 -30 3 -9 6 -22 6 -30 0 -11 6 -13
23 -8 12 4 31 8 41 9 23 2 32 20 17 30 -6 3 -11 15 -11 26 0 22 -4 22 -48 3z"/>
<path d="M8245 16247 c-16 -6 -31 -12 -33 -13 -2 -1 4 -14 13 -28 14 -21 22
-24 48 -19 18 3 33 7 34 8 5 3 -21 65 -27 64 -3 -1 -18 -6 -35 -12z"/>
<path d="M15273 16177 c-38 -11 -39 -14 -15 -44 13 -16 24 -20 44 -16 24 5 27
9 22 32 -9 36 -14 39 -51 28z"/>
<path d="M8162 16058 c-13 -7 -21 -17 -17 -26 3 -7 5 -20 5 -27 0 -10 10 -12
38 -8 20 3 38 7 40 8 6 5 -28 65 -36 64 -4 0 -17 -5 -30 -11z"/>
<path d="M15207 15993 c-4 -3 -7 -19 -7 -35 0 -28 12 -34 44 -22 14 5 14 9 -1
35 -18 30 -25 34 -36 22z"/>
<path d="M15390 15930 c-8 -5 -25 -10 -37 -10 -23 0 -32 -23 -13 -35 6 -3 10
-15 10 -27 0 -15 4 -18 18 -13 9 4 27 10 40 12 28 7 38 21 23 36 -6 6 -11 19
-11 29 0 20 -8 22 -30 8z"/>
<path d="M8080 15887 c-14 -6 -26 -11 -27 -12 -1 -1 3 -18 9 -38 l11 -36 28
16 c23 14 27 22 22 42 -8 36 -14 40 -43 28z"/>
<path d="M15298 15741 c-22 -13 -26 -21 -21 -41 3 -14 7 -28 9 -32 3 -5 52 8
72 18 2 1 -5 17 -15 36 -18 34 -19 34 -45 19z"/>
<path d="M8016 15725 c-10 -8 -23 -16 -28 -17 -6 -2 -4 -15 3 -31 11 -24 17
-27 38 -22 33 8 31 5 24 48 -6 41 -9 43 -37 22z"/>
<path d="M15220 15555 c-13 -16 -10 -47 5 -52 20 -6 33 12 28 40 -6 30 -15 34
-33 12z"/>
<path d="M7918 15543 c-31 -5 -34 -13 -15 -46 6 -12 13 -23 13 -25 1 -2 49 16
62 24 5 3 -21 54 -27 53 -3 -1 -18 -4 -33 -6z"/>
<path d="M3168 15376 c-10 -7 -18 -23 -18 -36 0 -17 4 -21 18 -15 9 4 27 10
39 12 21 5 21 6 6 29 -18 27 -21 28 -45 10z"/>
<path d="M7856 15361 c-4 -6 -16 -11 -27 -11 -22 0 -22 2 -8 -39 9 -24 15 -30
28 -25 9 3 26 9 39 11 27 6 27 11 -2 47 -15 18 -26 24 -30 17z"/>
<path d="M15292 15303 c-18 -4 -21 -9 -16 -31 12 -54 12 -54 41 -35 16 9 29
18 31 19 5 3 -21 54 -27 53 -3 -1 -16 -4 -29 -6z"/>
<path d="M6220 15221 c0 -6 5 -13 10 -16 6 -3 10 -16 10 -29 0 -34 10 -38 38
-16 13 11 31 20 38 20 11 0 11 5 2 25 -9 21 -18 25 -55 25 -23 0 -43 -4 -43
-9z"/>
<path d="M7757 15186 c-22 -8 -27 -15 -23 -31 3 -11 6 -27 6 -37 0 -14 5 -15
35 -5 37 11 43 27 22 63 -10 17 -16 19 -40 10z"/>
<path d="M15232 15138 c-14 -14 -16 -54 -3 -62 5 -4 18 -3 28 1 17 7 18 13 11
41 -9 34 -17 39 -36 20z"/>
<path d="M2822 15107 c-30 -32 -30 -61 1 -50 12 4 37 7 55 6 l33 -2 -28 34
c-15 18 -31 34 -34 34 -3 1 -15 -9 -27 -22z"/>
<path d="M15404 15051 c-27 -15 -29 -20 -22 -43 8 -24 12 -26 51 -21 51 7 51
7 38 30 -5 10 -12 26 -15 36 -6 20 -11 20 -52 -2z"/>
<path d="M6523 14850 c11 -29 27 -41 27 -19 0 16 -20 49 -29 49 -5 0 -4 -13 2
-30z"/>
<path d="M15307 14873 c-15 -4 -17 -11 -12 -31 9 -34 8 -34 39 -26 28 7 29 8
20 42 -6 22 -12 24 -47 15z"/>
<path d="M7351 14704 c-25 -32 -23 -37 13 -28 27 6 32 19 17 42 -6 11 -13 7
-30 -14z"/>
<path d="M15234 14696 c-10 -27 1 -51 21 -48 27 5 27 5 16 36 -11 29 -29 34
-37 12z"/>
<path d="M2390 14687 c-14 -6 -26 -11 -27 -12 -1 -1 2 -18 8 -38 9 -32 12 -36
29 -27 10 5 36 10 57 11 21 0 31 3 23 6 -19 8 -49 45 -50 61 0 14 -7 14 -40
-1z"/>
<path d="M7259 14565 c-21 -12 -25 -19 -21 -45 4 -27 8 -31 26 -26 11 3 27 6
35 6 10 0 12 8 7 32 -9 44 -16 49 -47 33z"/>
<path d="M15325 14453 c-16 -8 -31 -16 -32 -17 -1 -1 5 -19 14 -39 15 -31 21
-36 42 -31 54 12 54 12 37 39 -9 13 -16 33 -16 45 0 24 -5 24 -45 3z"/>
<path d="M14880 14359 c0 -5 5 -7 10 -4 6 3 10 8 10 11 0 2 -4 4 -10 4 -5 0
-10 -5 -10 -11z"/>
<path d="M15077 14352 c-24 -15 -26 -21 -21 -52 4 -19 8 -36 9 -38 1 -1 16 3
34 9 24 9 30 15 25 28 -3 9 -9 28 -13 43 -6 27 -6 27 -34 10z"/>
<path d="M14645 14330 c-3 -5 -15 -10 -26 -10 -10 0 -19 -1 -19 -2 0 -2 6 -21
13 -43 l12 -41 38 22 c33 18 36 23 22 34 -8 7 -15 18 -15 26 0 17 -17 27 -25
14z"/>
<path d="M14188 14313 c-21 -5 -21 -8 -8 -34 8 -15 17 -18 38 -13 35 9 35 9
22 33 -11 21 -19 23 -52 14z"/>
<path d="M6876 14253 c9 -51 15 -55 43 -34 24 18 24 20 8 45 -10 14 -27 26
-38 26 -18 0 -19 -4 -13 -37z"/>
<path d="M13760 14262 c0 -17 5 -19 25 -14 32 9 32 26 0 30 -19 3 -25 -1 -25
-16z"/>
<path d="M14820 14264 c-14 -7 -33 -13 -42 -14 -16 0 -16 -3 2 -32 11 -18 20
-41 20 -50 0 -22 9 -22 34 -3 11 8 29 15 39 15 16 0 17 3 7 15 -7 8 -18 30
-24 49 -11 32 -13 33 -36 20z"/>
<path d="M1980 14238 c-11 -12 -20 -33 -20 -46 0 -21 3 -23 33 -17 17 4 35 10
40 14 7 7 -19 71 -28 71 -2 0 -13 -10 -25 -22z"/>
<path d="M13942 14223 c-20 -4 -22 -8 -16 -41 4 -20 8 -38 9 -40 1 -1 16 1 33
4 31 6 42 26 22 39 -5 3 -10 15 -10 26 0 10 -3 18 -7 18 -5 -1 -18 -4 -31 -6z"/>
<path d="M1889 14069 c-25 -9 -26 -12 -16 -40 10 -26 15 -29 42 -23 16 3 31 7
32 8 5 4 -21 66 -27 65 -3 0 -17 -5 -31 -10z"/>
<path d="M1803 13898 c-18 -9 -21 -16 -16 -37 9 -39 10 -40 47 -29 33 11 34
11 21 42 -15 35 -22 38 -52 24z"/>
<path d="M1715 13727 c-16 -6 -31 -12 -33 -12 -1 -1 5 -16 14 -34 14 -28 20
-32 43 -26 39 10 45 20 31 54 -14 34 -12 34 -55 18z"/>
<path d="M1594 13397 c-5 -7 -20 -19 -31 -27 -17 -12 -20 -22 -16 -48 5 -33 6
-33 47 -27 22 4 42 8 44 10 1 1 -5 16 -14 33 -8 18 -13 41 -9 52 7 22 -4 26
-21 7z"/>
<path d="M1495 13200 c-3 -5 -15 -10 -26 -10 -22 0 -22 2 -8 -39 12 -34 12
-34 55 -18 30 12 31 13 17 45 -13 32 -27 40 -38 22z"/>
<path d="M1410 13030 c-8 -5 -25 -10 -38 -10 -23 0 -23 0 -5 -32 10 -18 19
-35 21 -37 1 -3 8 1 14 7 7 7 20 12 30 12 21 0 22 16 5 47 -9 16 -16 20 -27
13z"/>
<path d="M1325 12840 c-3 -5 -15 -10 -26 -10 -16 0 -19 -5 -15 -20 3 -11 8
-29 11 -39 6 -19 7 -19 38 -3 18 9 33 18 35 19 5 2 -27 63 -33 63 -2 0 -7 -4
-10 -10z"/>
<path d="M1238 12671 c-21 -12 -26 -21 -22 -36 9 -31 19 -37 47 -30 23 6 25
11 20 38 -8 43 -14 47 -45 28z"/>
<path d="M1158 12489 c-10 -5 -18 -21 -18 -34 0 -17 6 -25 18 -25 31 0 44 15
36 43 -7 30 -11 31 -36 16z"/>
<path d="M1264 12245 c-10 -8 -27 -15 -36 -15 -21 0 -21 -1 -8 -35 9 -24 13
-25 47 -19 21 4 39 7 40 8 1 1 -4 18 -11 39 -11 34 -14 36 -32 22z"/>
<path d="M1148 12063 c-28 -4 -38 -26 -18 -38 6 -3 10 -15 10 -26 0 -23 3 -24
38 -2 15 9 28 18 29 18 5 3 -22 55 -27 53 -3 0 -17 -3 -32 -5z"/>
<path d="M1087 11881 c-16 -9 -25 -22 -22 -29 3 -8 5 -20 5 -28 0 -12 8 -13
38 -8 20 4 38 7 39 9 2 1 -5 17 -15 37 -19 35 -19 36 -45 19z"/>
<path d="M1169 11619 c-25 -9 -26 -12 -16 -39 10 -25 14 -28 46 -23 52 7 67
13 55 21 -6 4 -16 17 -23 30 -13 24 -22 26 -62 11z"/>
<path d="M1087 11446 c-17 -6 -26 -15 -22 -24 3 -7 5 -22 5 -33 0 -23 13 -24
46 -3 16 11 21 20 15 28 -5 6 -10 18 -12 26 -3 13 -9 14 -32 6z"/>
<path d="M1040 11258 c0 -15 5 -30 11 -33 19 -12 21 2 5 32 l-15 28 -1 -27z"/>
<path d="M1210 11200 c-8 -5 -23 -11 -32 -14 -13 -4 -15 -11 -9 -33 4 -15 9
-28 12 -27 2 0 20 4 40 8 36 6 36 6 25 41 -12 37 -13 38 -36 25z"/>
<path d="M15510 11152 c-19 -9 -36 -17 -37 -17 -2 -1 3 -15 9 -32 11 -29 13
-30 57 -25 56 6 58 7 38 30 -10 10 -17 26 -17 35 0 24 -12 26 -50 9z"/>
<path d="M1103 11020 c-25 -10 -26 -13 -17 -47 5 -19 11 -22 33 -16 34 8 32 5
25 41 -7 35 -8 35 -41 22z"/>
<path d="M15417 10966 c-17 -6 -26 -15 -22 -24 3 -7 5 -21 5 -29 0 -12 7 -14
28 -8 37 9 41 16 28 45 -10 23 -14 25 -39 16z"/>
<path d="M1308 10951 c-14 -12 -33 -21 -42 -21 -13 0 -15 -7 -10 -42 8 -54 8
-53 36 -34 12 9 35 16 51 16 28 0 29 1 14 23 -8 13 -17 36 -19 51 l-3 28 -27
-21z"/>
<path d="M1216 10775 c-11 -8 -28 -15 -37 -15 -25 0 -28 -11 -13 -47 l13 -32
41 16 c34 14 40 20 36 37 -3 12 -6 29 -6 39 0 21 -9 21 -34 2z"/>
<path d="M15518 10717 c-23 -20 -25 -25 -15 -48 11 -24 15 -25 45 -17 26 7 32
13 27 26 -4 9 -10 27 -12 40 -6 27 -11 27 -45 -1z"/>
<path d="M1124 10576 c-11 -29 1 -51 30 -54 24 -3 28 -1 21 15 -4 10 -10 26
-12 36 -6 21 -31 23 -39 3z"/>
<path d="M15436 10537 c-11 -8 -17 -23 -14 -38 2 -19 8 -23 28 -21 32 5 31 3
24 40 -7 36 -12 38 -38 19z"/>
<path d="M1316 10514 c-11 -8 -30 -14 -43 -14 -28 0 -28 -1 -5 -39 13 -22 22
-27 32 -20 8 5 25 9 38 9 19 0 22 4 16 28 -11 47 -17 52 -38 36z"/>
<path d="M15630 10465 c-7 -8 -21 -15 -32 -15 -17 0 -19 -4 -13 -27 9 -36 6
-35 54 -27 34 5 41 10 35 23 -3 9 -9 26 -11 39 -6 26 -16 28 -33 7z"/>
<path d="M13440 10403 c-8 -2 -21 -7 -29 -9 -11 -4 -11 -8 3 -22 9 -10 16 -24
16 -31 0 -9 6 -11 18 -6 9 4 24 9 33 12 14 4 15 9 6 34 -11 29 -18 32 -47 22z"/>
<path d="M1207 10316 c-17 -6 -26 -15 -22 -24 3 -7 5 -20 5 -28 0 -12 8 -13
38 -8 20 4 38 8 40 9 2 2 -5 16 -15 32 -16 26 -21 28 -46 19z"/>
<path d="M15522 10281 c-26 -7 -26 -9 -17 -51 6 -29 7 -30 36 -14 24 12 29 19
23 37 -9 30 -16 35 -42 28z"/>
<path d="M1396 10255 c-11 -8 -28 -15 -38 -15 -22 0 -22 1 -3 -44 15 -35 17
-36 38 -21 12 8 32 15 44 15 27 0 27 0 6 45 -19 39 -20 40 -47 20z"/>
<path d="M13350 10211 c-15 -5 -23 -13 -21 -22 26 -90 -36 -165 -115 -139 -40
13 -59 41 -69 100 l-8 45 -48 -54 c-37 -41 -49 -63 -49 -87 0 -38 -20 -57 -58
-56 -20 0 -46 -14 -87 -49 -59 -51 -142 -99 -170 -99 -17 0 -21 -25 -5 -35 30
-18 0 -90 -48 -114 -44 -23 -112 20 -112 71 0 32 -6 34 -34 13 -11 -8 -28 -15
-39 -15 -15 0 -18 -5 -12 -22 16 -53 16 -67 0 -97 -20 -39 -73 -66 -110 -57
-27 7 -61 36 -80 69 -9 16 -12 16 -32 2 -18 -13 -23 -26 -23 -61 0 -49 1 -50
34 -29 45 30 116 -14 116 -72 0 -34 -42 -73 -80 -73 -36 0 -80 38 -80 70 0 24
-8 25 -34 5 -11 -8 -30 -15 -42 -15 -21 0 -22 -3 -17 -54 5 -49 3 -57 -20 -80
-37 -37 -89 -36 -128 3 -16 16 -29 39 -29 50 0 12 -1 21 -2 21 -2 -1 -27 -9
-56 -19 -44 -15 -50 -20 -38 -31 23 -18 30 -74 14 -106 -8 -17 -28 -34 -51
-43 -34 -13 -42 -12 -72 2 -22 11 -38 28 -46 52 -10 26 -17 34 -29 29 -8 -4
-25 -9 -37 -11 -26 -6 -28 -12 -11 -48 25 -56 -48 -134 -112 -120 -32 7 -80
57 -80 82 0 11 -5 13 -17 7 -10 -4 -35 -9 -55 -12 l-37 -4 20 -21 c28 -31 26
-91 -6 -122 -35 -36 -97 -35 -130 1 -14 15 -25 35 -25 45 0 20 -24 26 -35 9
-3 -5 -20 -10 -36 -10 -26 0 -29 -2 -19 -19 28 -53 1 -118 -57 -135 -35 -11
-91 18 -99 51 -10 42 -13 44 -45 28 -17 -9 -29 -24 -29 -35 0 -11 -7 -20 -15
-20 -11 0 -15 -11 -15 -38 0 -39 -16 -62 -53 -75 -23 -8 -87 18 -87 35 -1 36
-16 41 -77 28 l-60 -13 14 -28 c26 -53 -9 -109 -70 -109 -33 0 -77 40 -77 70
0 12 -3 20 -7 18 -5 -2 -24 -12 -45 -21 -36 -16 -36 -17 -25 -52 9 -30 14 -34
31 -28 92 32 166 -60 113 -141 -12 -18 -30 -28 -57 -32 l-40 -6 20 -28 c39
-55 20 -131 -42 -166 -11 -6 -15 -18 -11 -36 5 -25 7 -26 57 -21 47 5 54 3 84
-25 26 -25 32 -38 32 -72 l0 -41 26 20 c35 27 65 27 92 -2 43 -46 14 -117 -47
-117 -33 0 -71 39 -71 74 0 21 -1 21 -18 -2 -10 -12 -31 -26 -47 -31 -19 -5
-28 -14 -26 -22 2 -8 6 -26 8 -40 5 -25 6 -25 44 -15 32 8 46 7 67 -5 62 -35
65 -116 4 -154 -21 -13 -29 -25 -25 -35 4 -8 8 -34 11 -57 4 -47 8 -49 36 -28
27 20 49 19 80 -6 51 -40 23 -129 -42 -129 -47 0 -72 25 -72 72 l0 42 -28 -27
c-15 -15 -35 -27 -43 -27 -25 0 -28 -9 -16 -46 8 -26 15 -33 26 -28 47 20 71
16 106 -19 56 -56 42 -122 -32 -153 -29 -12 -32 -17 -23 -34 18 -35 12 -86
-16 -119 -14 -17 -33 -31 -41 -31 -10 0 -13 -6 -9 -16 3 -9 6 -24 6 -34 0 -16
6 -18 54 -13 51 5 57 4 85 -25 52 -52 33 -139 -36 -164 -34 -12 -41 -22 -23
-33 6 -3 10 -19 10 -36 0 -29 13 -39 25 -19 3 6 22 10 41 10 76 0 112 -89 58
-144 -15 -14 -35 -26 -45 -26 -22 0 -23 -4 -8 -32 6 -12 11 -39 11 -62 -1 -33
-7 -47 -32 -68 -16 -16 -37 -28 -45 -28 -18 0 -19 -12 -4 -27 6 -6 12 -30 13
-52 1 -52 -29 -93 -78 -105 -31 -8 -35 -13 -29 -30 24 -68 -14 -126 -82 -126
-55 0 -85 30 -85 86 0 46 31 84 68 84 22 0 30 24 12 35 -5 3 -10 17 -10 31 0
24 -23 34 -35 14 -3 -5 -18 -10 -32 -10 -20 0 -24 -3 -17 -17 4 -10 9 -34 11
-53 9 -72 -87 -112 -142 -60 -44 41 -27 119 31 141 24 8 24 10 9 38 -8 17 -15
41 -15 56 0 29 -3 30 -35 9 -21 -14 -30 -14 -55 -4 -37 15 -60 46 -60 78 0 30
51 82 80 82 21 0 22 1 6 25 -9 13 -16 40 -16 59 0 56 -8 68 -31 45 -25 -25
-64 -24 -89 1 -27 27 -25 62 3 88 26 24 48 27 78 12 30 -17 24 16 -11 57 -35
39 -38 70 -10 106 15 19 20 40 20 85 l0 60 -38 -5 c-50 -7 -83 19 -84 66 -1
43 42 85 79 78 28 -5 29 4 4 27 -11 10 -22 28 -25 42 -6 21 -11 23 -34 18 -41
-10 -42 -12 -36 -52 3 -20 1 -50 -5 -65 -13 -33 -69 -60 -105 -51 -29 7 -61
40 -71 72 -5 17 -11 21 -23 16 -66 -28 -121 -9 -150 54 -9 20 -18 39 -19 41
-1 2 -9 -2 -17 -9 -21 -17 -80 -17 -111 0 -15 8 -33 27 -41 42 -13 24 -17 26
-44 17 -26 -10 -29 -14 -24 -42 10 -57 10 -57 42 -41 39 19 87 2 108 -38 43
-83 -65 -160 -131 -93 -14 13 -25 33 -25 45 0 24 2 24 -45 4 -22 -9 -49 -13
-64 -9 -34 8 -81 54 -81 78 0 15 -5 18 -22 13 -13 -3 -31 -6 -40 -6 -14 0 -16
-8 -11 -52 4 -45 2 -57 -16 -75 -12 -13 -33 -26 -47 -29 -37 -9 -92 19 -100
51 -5 19 -11 24 -23 20 -40 -17 -72 -23 -93 -18 -31 8 -78 53 -78 75 0 16 -5
18 -37 12 -47 -8 -45 -6 -33 -38 32 -86 -78 -159 -145 -96 -14 13 -25 31 -25
40 0 26 -9 29 -45 14 -20 -8 -47 -11 -65 -8 -32 7 -80 55 -80 81 0 8 -3 13 -7
11 -5 -3 -22 -10 -39 -17 -30 -12 -31 -14 -21 -46 14 -47 -6 -93 -50 -111 -64
-27 -128 16 -127 85 1 38 28 81 51 81 20 0 23 15 10 49 -13 34 -15 35 -52 21
-22 -8 -24 -13 -15 -29 19 -37 11 -72 -24 -107 -19 -19 -41 -34 -50 -34 -12 0
-14 -7 -9 -30 5 -26 0 -36 -30 -65 -20 -19 -40 -35 -46 -35 -5 0 -23 12 -41
26 -30 26 -31 26 -138 18 -59 -4 -96 -10 -82 -12 37 -6 70 -41 70 -74 0 -64
-80 -92 -119 -42 -25 32 -26 52 -5 82 14 20 14 22 -4 22 -11 0 -27 -11 -36
-25 -10 -14 -30 -34 -46 -43 -21 -13 -26 -22 -19 -32 5 -8 9 -25 9 -37 0 -21
3 -22 50 -16 44 5 54 3 75 -17 35 -33 35 -92 -1 -125 -15 -14 -36 -25 -47 -25
-14 0 -17 -4 -12 -17 21 -53 24 -77 10 -109 -13 -32 -58 -64 -89 -64 -14 0
-14 -4 1 -34 16 -34 17 -35 64 -29 44 5 51 3 78 -25 49 -49 37 -122 -24 -148
-39 -16 -41 -20 -20 -48 8 -11 15 -28 15 -39 0 -16 4 -18 23 -12 67 23 127
-11 127 -72 0 -92 -128 -113 -161 -26 -9 24 -11 25 -28 9 -9 -9 -24 -16 -33
-16 -23 0 -27 -9 -16 -40 9 -26 12 -28 36 -19 42 16 88 2 117 -35 14 -18 25
-43 25 -55 0 -18 3 -20 19 -11 72 38 147 -24 116 -97 -26 -62 -114 -61 -143 1
-13 30 -24 32 -42 11 -7 -8 -21 -15 -31 -15 -15 0 -17 -6 -12 -37 7 -49 8 -49
37 -29 44 28 90 21 125 -19 17 -20 31 -47 31 -60 0 -25 14 -33 25 -15 11 18
74 11 95 -10 30 -30 27 -83 -6 -109 -15 -12 -33 -21 -41 -21 -28 0 -73 31 -73
50 0 26 -18 35 -38 17 -9 -8 -27 -18 -40 -22 -15 -4 -21 -12 -18 -22 3 -8 6
-21 6 -28 0 -10 13 -12 55 -8 51 5 58 4 85 -22 16 -15 32 -41 35 -57 5 -23 11
-28 23 -22 10 4 29 9 44 11 36 7 78 -35 78 -77 0 -38 -39 -80 -73 -80 -29 0
-73 33 -82 60 -6 19 -8 19 -28 5 -12 -8 -30 -15 -40 -15 -15 0 -17 -5 -11 -37
4 -21 8 -39 9 -41 1 -1 18 4 38 13 49 20 92 10 123 -30 13 -17 24 -40 24 -50
0 -13 5 -15 18 -10 9 5 31 10 47 12 42 6 85 -36 85 -84 0 -75 -90 -111 -144
-57 -14 15 -26 33 -26 42 0 12 -4 12 -25 -2 -13 -9 -31 -16 -40 -16 -12 0 -14
-6 -9 -27 10 -41 13 -44 34 -33 37 20 81 12 111 -20 16 -16 29 -39 29 -49 0
-28 12 -32 48 -19 26 10 37 9 65 -4 69 -33 75 -132 11 -170 -25 -15 -33 -25
-28 -37 3 -9 8 -23 11 -33 4 -13 11 -14 36 -7 18 5 44 7 60 3 27 -6 77 -60 77
-83 0 -9 7 -10 23 -4 70 25 125 -6 134 -75 5 -36 2 -45 -25 -72 -20 -20 -40
-30 -61 -30 l-30 0 26 -40 c18 -27 30 -37 37 -30 5 5 27 10 49 10 37 0 38 0
23 22 -24 34 -19 66 14 100 24 24 36 29 58 24 43 -10 75 -53 68 -90 -7 -37
-39 -66 -72 -66 l-24 0 20 -37 c11 -21 20 -46 20 -56 0 -16 2 -16 30 -2 48 25
88 19 121 -16 16 -17 29 -42 29 -56 0 -23 3 -24 28 -17 76 22 134 -13 134 -81
0 -36 -32 -85 -56 -85 -29 -1 -36 -16 -24 -48 12 -30 14 -31 53 -25 49 7 49 7
36 31 -17 31 -13 67 10 96 44 56 149 18 149 -54 0 -37 -33 -77 -70 -85 -28 -6
-29 -8 -15 -28 8 -12 15 -32 15 -44 0 -27 -2 -27 43 -8 21 9 48 12 67 9 31 -7
80 -55 80 -79 0 -11 11 -13 48 -8 57 6 84 -5 108 -46 16 -28 20 -29 65 -24 58
7 94 -12 115 -62 13 -32 15 -33 47 -23 47 14 100 -11 122 -59 15 -32 20 -34
47 -29 17 3 44 6 60 6 28 0 29 1 14 22 -37 53 -3 118 61 118 69 0 98 -76 47
-127 -17 -17 -33 -24 -50 -20 -59 11 -6 -37 59 -54 50 -12 69 -7 49 13 -37 37
8 128 63 128 30 0 85 -49 85 -75 0 -22 -28 -75 -40 -75 -6 0 -10 -4 -10 -10 0
-21 41 -9 50 15 35 91 152 87 175 -7 7 -27 8 -27 36 -13 15 8 37 15 49 15 26
0 77 -26 82 -42 5 -13 126 -29 134 -17 2 4 -3 12 -11 19 -37 30 2 110 53 110
50 0 82 -78 47 -113 -18 -18 -10 -27 26 -27 19 0 34 8 44 23 25 39 59 52 94
37 17 -6 37 -22 45 -35 14 -22 24 -23 158 -30 227 -11 734 -9 843 3 55 6 143
16 195 21 104 12 263 34 353 51 31 5 81 14 110 20 89 16 197 40 342 76 534
133 810 317 897 599 19 64 21 90 19 290 l-2 220 -29 23 c-41 32 -41 81 -2 114
l27 23 0 135 c0 136 -5 160 -30 160 -20 0 -45 40 -45 73 0 19 10 38 30 57 l30
28 0 121 c0 84 -4 123 -12 131 -7 5 -24 19 -38 29 -36 28 -35 95 3 125 25 20
27 27 27 93 l0 72 -28 -16 c-35 -20 -75 -12 -89 19 -22 49 26 101 74 79 31
-14 33 -14 33 5 0 10 -16 32 -35 51 -44 42 -45 71 -4 118 30 33 31 39 26 91
-7 64 -11 72 -32 54 -38 -31 -107 30 -86 76 15 34 54 50 86 36 23 -11 25 -10
25 16 0 17 -10 38 -25 52 -30 28 -34 83 -8 120 13 18 17 40 14 85 -1 33 -4 61
-6 63 -2 2 -11 -1 -21 -6 -25 -14 -69 4 -83 34 -20 44 23 98 72 89 21 -3 27
-1 27 14 0 10 -9 26 -20 36 -24 22 -26 81 -5 109 9 12 15 42 15 78 0 57 0 58
-28 58 -35 0 -72 37 -72 73 0 32 35 67 67 67 28 0 29 14 3 47 -24 30 -26 69
-6 109 10 19 13 45 9 77 -5 43 -9 49 -35 54 -57 11 -77 82 -35 121 13 12 31
22 41 22 16 0 17 5 10 38 -4 20 -6 80 -5 133 l3 97 -39 18 c-69 34 -68 109 1
143 26 12 28 16 21 50 -4 20 -9 80 -11 134 -3 97 -3 98 -39 131 -46 44 -44 80
7 130 13 12 18 26 14 40 -3 11 -6 47 -6 78 l0 57 -25 -25 c-31 -31 -61 -28
-88 9 l-21 27 21 28 c26 35 49 39 84 13 l29 -22 0 27 c0 16 -13 42 -35 65 -19
22 -35 46 -35 55 0 21 29 74 40 74 6 0 10 33 10 75 0 41 -2 75 -4 75 -2 0 -16
-6 -31 -14 -24 -13 -32 -13 -55 -1 -74 38 -19 141 56 106 21 -9 24 -8 24 8 0
10 -11 30 -25 45 -32 34 -34 92 -5 129 17 22 20 35 14 77 -6 48 -8 50 -39 50
-64 0 -90 79 -39 119 15 12 35 21 45 21 25 0 24 21 -1 53 -24 31 -27 99 -5
117 11 9 15 26 13 54 -3 39 -5 41 -40 47 -41 6 -74 30 -83 60 -7 20 -15 21
-55 10z m93 -82 c31 -16 57 -50 57 -75 0 -32 -53 -84 -85 -84 -35 0 -85 50
-85 85 0 30 49 85 75 85 9 0 26 -5 38 -11z m-236 -111 c47 -44 15 -118 -51
-118 -41 0 -69 29 -69 72 0 61 74 89 120 46z m161 -100 c26 -26 0 -88 -36 -88
-23 0 -52 30 -52 55 0 28 18 45 50 45 14 0 31 -5 38 -12z m-421 -24 c15 -24
15 -29 2 -53 -11 -20 -22 -26 -49 -26 -27 0 -38 6 -49 26 -13 24 -13 29 2 53
12 18 26 26 47 26 21 0 35 -8 47 -26z m156 -86 c8 -12 7 -21 -2 -32 -19 -22
-48 -20 -61 5 -23 41 38 68 63 27z m-263 -93 c20 -25 8 -50 -25 -50 -31 0 -43
20 -31 51 7 18 40 18 56 -1z m430 0 c0 -8 -4 -15 -10 -15 -5 0 -10 7 -10 15 0
8 5 15 10 15 6 0 10 -7 10 -15z m-676 -56 c33 -26 35 -70 4 -99 -29 -27 -54
-25 -83 5 -37 36 -28 86 18 105 31 12 31 12 61 -11z m865 -18 c15 -27 -9 -56
-37 -47 -21 7 -31 44 -15 59 13 13 42 7 52 -12z m-447 -43 c-15 -15 -26 -4
-18 18 5 13 9 15 18 6 9 -9 9 -15 0 -24z m-242 -74 c0 -19 -28 -30 -42 -16 -8
8 -8 15 1 26 14 17 41 10 41 -10z m-255 -94 c8 -26 -1 -40 -26 -40 -22 0 -34
22 -25 45 8 22 44 18 51 -5z m-265 -60 c11 -11 20 -27 20 -35 0 -20 -36 -55
-57 -55 -25 0 -53 30 -53 56 0 23 33 54 57 54 7 0 22 -9 33 -20z m420 -15 c0
-8 -4 -15 -10 -15 -5 0 -10 7 -10 15 0 8 5 15 10 15 6 0 10 -7 10 -15z m-687
-46 c29 -16 37 -28 37 -61 0 -33 -32 -68 -62 -68 -31 0 -68 38 -68 71 0 18 9
35 26 48 31 24 37 25 67 10z m435 -62 c2 -10 -3 -17 -12 -17 -18 0 -29 16 -21
31 9 14 29 6 33 -14z m1052 -32 c10 -12 10 -18 0 -30 -16 -19 -39 -19 -46 0
-6 15 11 45 26 45 4 0 13 -7 20 -15z m-1717 -27 c41 -47 4 -112 -61 -106 -68
6 -84 94 -22 125 30 15 59 8 83 -19z m415 -25 c5 -18 -28 -29 -38 -12 -5 7 -6
17 -3 22 7 12 35 5 41 -10z m-678 -53 c42 -42 12 -120 -47 -120 -33 0 -73 36
-73 65 0 62 78 97 120 55z m418 -53 c2 -12 -3 -17 -17 -17 -15 0 -21 6 -21 21
0 25 33 22 38 -4z m-679 -63 c12 -15 21 -33 21 -41 0 -19 -45 -63 -65 -63 -20
0 -65 44 -65 63 0 25 41 67 65 67 14 0 32 -11 44 -26z m419 -21 c-2 -10 -10
-18 -18 -18 -8 0 -16 8 -18 18 -2 12 3 17 18 17 15 0 20 -5 18 -17z m-684 -69
c22 -21 20 -47 -4 -69 -44 -40 -107 25 -69 71 15 19 54 18 73 -2z m424 -31
c-5 -25 -28 -28 -28 -4 0 12 6 21 16 21 9 0 14 -7 12 -17z m-699 -87 c13 -16
4 -46 -14 -46 -7 0 -18 7 -25 15 -10 12 -10 18 0 30 15 19 24 19 39 1z m189
-103 c-2 -10 -10 -18 -18 -18 -8 0 -16 8 -18 18 -2 12 3 17 18 17 15 0 20 -5
18 -17z m-233 -53 c41 -46 -29 -116 -75 -75 -22 20 -27 64 -8 83 19 19 63 14
83 -8z m2930 -66 c27 -11 38 -53 20 -80 -17 -26 -62 -33 -83 -12 -17 17 -15
58 5 80 17 19 31 22 58 12z m-2780 -49 c0 -13 -8 -21 -22 -23 -17 -3 -23 2
-23 16 0 10 3 22 7 26 13 13 38 1 38 -19z m-251 -15 c14 -5 32 -23 41 -41 40
-77 -58 -147 -122 -87 -36 34 -27 99 18 124 29 16 31 16 63 4z m416 -75 c0 -8
-7 -15 -15 -15 -8 0 -15 7 -15 15 0 8 7 15 15 15 8 0 15 -7 15 -15z m-245 -85
c0 -30 -35 -40 -55 -15 -10 12 -10 18 0 30 20 25 55 15 55 -15z m160 -86 c0
-10 -8 -20 -17 -22 -18 -3 -26 27 -11 42 12 11 28 0 28 -20z m165 -84 c0 -5
-5 -10 -11 -10 -5 0 -7 5 -4 10 3 6 8 10 11 10 2 0 4 -4 4 -10z m-245 -85 c0
-13 -8 -21 -22 -23 -17 -3 -23 2 -23 16 0 10 3 22 7 26 13 13 38 1 38 -19z
m2789 9 c20 -20 20 -33 -1 -56 -23 -25 -50 -23 -69 7 -16 24 -16 27 1 45 22
24 48 26 69 4z m-2606 -97 c2 -10 -3 -17 -12 -17 -18 0 -29 16 -21 31 9 14 29
6 33 -14z m-244 -53 c9 -8 16 -23 16 -31 0 -19 -28 -53 -43 -53 -17 0 -47 32
-47 51 0 21 26 49 45 49 7 0 21 -7 29 -16z m164 -117 c4 -20 -25 -34 -40 -19
-15 15 -1 44 19 40 10 -2 19 -11 21 -21z m162 -87 c0 -21 -15 -27 -25 -10 -7
12 2 30 16 30 5 0 9 -9 9 -20z m-245 -85 c0 -23 -34 -33 -45 -14 -13 20 1 40
24 37 13 -2 21 -10 21 -23z m2785 10 c15 -18 6 -61 -16 -69 -18 -7 -49 8 -57
28 -8 19 20 56 42 56 10 0 24 -7 31 -15z m-2620 -95 c0 -13 -7 -20 -20 -20
-19 0 -27 20 -13 33 13 14 33 6 33 -13z m-235 -65 c14 -13 25 -31 25 -40 0
-21 -44 -65 -65 -65 -21 0 -65 44 -65 65 0 21 44 65 65 65 9 0 27 -11 40 -25z
m170 -110 c0 -30 -39 -27 -43 3 -3 20 0 23 20 20 15 -2 23 -10 23 -23z m-1725
-5 c11 -11 20 -31 20 -45 0 -14 -9 -34 -20 -45 -11 -11 -31 -20 -45 -20 -14 0
-34 9 -45 20 -11 11 -20 31 -20 45 0 14 9 34 20 45 11 11 31 20 45 20 14 0 34
-9 45 -20z m-447 -1 c68 -31 45 -129 -30 -129 -30 0 -63 37 -63 70 0 19 9 35
26 49 31 24 35 25 67 10z m889 -6 c39 -35 7 -98 -48 -91 -18 2 -34 13 -43 29
-13 24 -13 29 2 53 20 30 61 35 89 9z m-1295 -25 c13 -12 23 -32 23 -45 0 -30
-42 -73 -71 -73 -32 0 -69 38 -69 72 0 60 71 89 117 46z m2338 6 c24 -10 46
-60 39 -89 -9 -34 -41 -55 -86 -55 -31 0 -40 5 -53 30 -21 41 -19 67 10 95 24
24 57 31 90 19z m405 -54 c0 -11 -7 -20 -15 -20 -8 0 -15 9 -15 20 0 11 7 20
15 20 8 0 15 -9 15 -20z m-1286 -6 c21 -20 20 -30 -4 -54 -11 -11 -24 -20 -29
-20 -16 0 -41 30 -41 49 0 38 45 54 74 25z m-1313 -24 c23 -13 25 -52 4 -70
-8 -7 -25 -10 -39 -6 -32 8 -40 42 -15 67 22 22 24 22 50 9z m-410 -32 c26
-48 -34 -90 -73 -50 -24 24 -18 55 15 69 27 12 44 7 58 -19z m1279 12 c0 -11
-6 -20 -14 -20 -18 0 -29 16 -21 30 11 18 35 11 35 -10z m-436 -7 c4 -9 0 -23
-9 -32 -13 -14 -17 -14 -31 1 -9 9 -14 24 -11 32 8 21 43 20 51 -1z m4694 -15
c31 -31 3 -76 -39 -63 -24 8 -25 51 -1 64 22 13 26 13 40 -1z m-2778 -13 c10
-12 10 -18 0 -30 -16 -19 -39 -19 -46 0 -6 15 11 45 26 45 4 0 13 -7 20 -15z
m-882 -32 c-4 -22 -22 -20 -26 1 -2 10 3 16 13 16 10 0 15 -7 13 -17z m1052
-53 c0 -13 -7 -20 -20 -20 -13 0 -20 7 -20 20 0 13 7 20 20 20 13 0 20 -7 20
-20z m-3205 -15 c0 -13 -8 -21 -22 -23 -17 -3 -23 2 -23 16 0 10 3 22 7 26 13
13 38 1 38 -19z m415 15 c0 -5 -4 -10 -10 -10 -5 0 -10 5 -10 10 0 6 5 10 10
10 6 0 10 -4 10 -10z m2560 -60 c26 -26 25 -58 -2 -87 -58 -62 -150 24 -93 87
23 26 69 26 95 0z m-2812 -27 c-4 -22 -22 -20 -26 1 -2 10 3 16 13 16 10 0 15
-7 13 -17z m-247 -63 c21 -12 25 -50 7 -68 -19 -19 -56 -14 -68 8 -15 28 3 61
38 69 2 1 12 -4 23 -9z m3207 -36 c3 -22 -21 -39 -39 -28 -11 6 -12 38 -2 48
13 13 38 1 41 -20z m-3038 -89 c0 -18 -5 -25 -19 -25 -11 0 -21 6 -24 13 -7
20 4 37 24 37 14 0 19 -7 19 -25z m3220 0 c0 -8 -6 -15 -14 -15 -17 0 -28 14
-19 24 12 12 33 6 33 -9z m-3448 -32 c23 -20 24 -80 1 -105 -38 -42 -123 -5
-123 55 0 55 80 89 122 50z m403 -33 c3 -5 1 -10 -4 -10 -6 0 -11 5 -11 10 0
6 2 10 4 10 3 0 8 -4 11 -10z m2795 -5 c10 -12 10 -18 0 -30 -7 -8 -18 -15
-25 -15 -7 0 -18 7 -25 15 -10 12 -10 18 0 30 7 8 18 15 25 15 7 0 18 -7 25
-15z m2760 -37 c0 -15 -32 -21 -40 -7 -13 20 9 43 26 28 8 -6 14 -16 14 -21z
m-3642 5 c-2 -10 -10 -18 -18 -18 -8 0 -16 8 -18 18 -2 12 3 17 18 17 15 0 20
-5 18 -17z m-2173 -68 c0 -13 -8 -21 -22 -23 -17 -3 -23 2 -23 16 0 10 3 22 7
26 13 13 38 1 38 -19z m3223 2 c4 -20 -25 -34 -39 -20 -14 14 1 45 20 41 9 -2
17 -11 19 -21z m-233 -42 c14 -13 25 -33 25 -45 0 -27 -43 -70 -70 -70 -27 0
-70 43 -70 70 0 27 43 70 70 70 11 0 32 -11 45 -25z m-2805 -45 c0 -13 -7 -20
-20 -20 -19 0 -27 20 -13 33 13 14 33 6 33 -13z m3195 0 c3 -5 1 -10 -4 -10
-6 0 -11 5 -11 10 0 6 2 10 4 10 3 0 8 -4 11 -10z m-3433 -47 c20 -18 24 -63
6 -81 -7 -7 -26 -12 -43 -12 -37 0 -55 16 -55 49 0 52 54 78 92 44z m2326 -25
c25 -25 2 -78 -33 -78 -7 0 -21 7 -29 16 -9 8 -16 22 -16 29 0 35 53 58 78 33z
m869 -4 c3 -8 -1 -22 -9 -30 -12 -12 -17 -12 -33 0 -16 12 -17 16 -6 30 17 20
40 21 48 0z m-232 -64 c42 -46 10 -120 -51 -120 -36 0 -74 37 -74 73 0 56 87
89 125 47z m-2805 -30 c0 -24 -26 -38 -42 -22 -16 16 -2 42 22 42 13 0 20 -7
20 -20z m3197 5 c7 -20 -2 -29 -21 -22 -9 4 -13 13 -10 22 8 19 23 19 31 0z
m-249 -89 c4 -21 -14 -37 -35 -29 -14 5 -18 35 -6 47 12 12 38 1 41 -18z
m-2783 -6 c0 -22 -29 -18 -33 3 -3 14 1 18 15 15 10 -2 18 -10 18 -18z m5555
-15 c0 -8 -7 -15 -15 -15 -8 0 -15 7 -15 15 0 8 7 15 15 15 8 0 15 -7 15 -15z
m-5796 -41 c20 -19 20 -24 0 -52 -19 -28 -51 -26 -70 3 -12 18 -11 24 2 43 18
26 46 28 68 6z m2784 -6 c21 -21 14 -66 -13 -84 -52 -34 -111 31 -70 76 20 22
65 26 83 8z m-443 -38 c0 -18 -6 -26 -23 -28 -24 -4 -38 18 -28 44 3 9 15 14
28 12 17 -2 23 -10 23 -28z m845 15 c0 -8 -7 -15 -15 -15 -8 0 -15 7 -15 15 0
8 7 15 15 15 8 0 15 -7 15 -15z m-3029 -99 c-16 -19 -41 -10 -41 14 0 24 21
31 39 14 11 -10 12 -16 2 -28z m2359 13 c14 -26 -4 -51 -34 -47 -21 3 -32 28
-22 54 8 21 44 17 56 -7z m418 -16 c-2 -10 -10 -18 -18 -18 -8 0 -16 8 -18 18
-2 12 3 17 18 17 15 0 20 -5 18 -17z m-2596 -68 c0 -5 -5 -11 -11 -13 -6 -2
-11 4 -11 13 0 9 5 15 11 13 6 -2 11 -8 11 -13z m2328 -15 c0 -5 -5 -10 -11
-10 -5 0 -7 5 -4 10 3 6 8 10 11 10 2 0 4 -4 4 -10z m-2569 -56 c9 -11 10 -20
2 -32 -13 -22 -43 -22 -56 -1 -24 38 25 68 54 33z m167 -103 c-2 -9 -11 -17
-21 -19 -21 -4 -35 27 -17 38 19 12 42 0 38 -19z m162 -87 c0 -17 -22 -14 -28
4 -2 7 3 12 12 12 9 0 16 -7 16 -16z m-240 -59 c23 -28 -9 -72 -45 -59 -36 14
-24 74 15 74 10 0 23 -7 30 -15z m5732 -92 c21 -19 23 -41 4 -65 -17 -23 -54
-23 -78 -1 -22 20 -23 41 -1 65 20 22 51 23 75 1z m-5574 -15 c-2 -13 -10 -23
-18 -23 -8 0 -16 10 -18 23 -3 17 2 22 18 22 16 0 21 -5 18 -22z m182 -88 c0
-5 -4 -10 -10 -10 -5 0 -10 5 -10 10 0 6 5 10 10 10 6 0 10 -4 10 -10z m-249
-50 c23 -13 25 -52 4 -70 -12 -10 -21 -10 -40 -2 -29 13 -33 43 -9 66 18 19
20 19 45 6z m177 -121 c3 -17 -23 -33 -39 -23 -5 3 -9 14 -9 25 0 15 6 20 22
17 13 -2 24 -10 26 -19z m160 -86 c-4 -22 -22 -20 -26 1 -2 10 3 16 13 16 10
0 15 -7 13 -17z m-233 -48 c29 -28 31 -42 9 -73 -19 -28 -64 -29 -88 -3 -25
27 -17 72 14 88 34 17 37 17 65 -12z m5553 -37 c17 -17 15 -48 -5 -70 -20 -22
-41 -23 -65 -1 -20 18 -23 36 -8 64 12 22 59 26 78 7z m-5393 -68 c11 -18 -6
-50 -26 -50 -22 0 -34 22 -25 45 6 17 42 20 51 5z m182 -96 c7 -18 -17 -38
-31 -24 -11 11 -1 40 14 40 6 0 13 -7 17 -16z m-225 -41 c23 -20 24 -80 1
-105 -20 -22 -71 -24 -101 -2 -26 18 -30 69 -6 102 19 27 78 30 106 5z m388
-53 c0 -5 -4 -10 -10 -10 -5 0 -10 5 -10 10 0 6 5 10 10 10 6 0 10 -4 10 -10z
m-242 -46 c26 -18 28 -50 5 -76 -21 -23 -38 -23 -63 2 -26 26 -25 44 2 70 26
24 28 24 56 4z m170 -122 c4 -26 -22 -40 -43 -22 -11 9 -12 17 -4 32 13 25 43
19 47 -10z m5126 -25 c16 -25 -16 -56 -38 -37 -19 15 -20 32 -4 48 15 15 28
11 42 -11z m-4956 -64 c5 -18 -28 -29 -38 -12 -5 7 -6 17 -3 22 7 12 35 5 41
-10z m-63 -119 c27 -11 38 -53 21 -80 -21 -31 -52 -39 -81 -20 -60 40 -8 126
60 100z m170 -107 c21 -16 15 -61 -11 -71 -42 -16 -76 50 -36 73 22 14 25 13
47 -2z m165 -96 c0 -26 -17 -36 -35 -21 -18 15 -8 40 16 40 12 0 19 -7 19 -19z
m168 -88 c-2 -10 -10 -18 -18 -18 -8 0 -16 8 -18 18 -2 12 3 17 18 17 15 0 20
-5 18 -17z m182 -88 c0 -8 -4 -15 -10 -15 -5 0 -10 7 -10 15 0 8 5 15 10 15 6
0 10 -7 10 -15z m-216 -57 c14 -40 -1 -78 -36 -92 -38 -16 -59 -11 -88 19 -52
55 13 140 84 111 17 -7 35 -24 40 -38z m391 -28 c3 -5 -1 -10 -9 -10 -9 0 -16
5 -16 10 0 6 4 10 9 10 6 0 13 -4 16 -10z m-221 -39 c25 -28 17 -79 -16 -104
-23 -17 -31 -18 -57 -8 -52 22 -62 93 -17 123 21 15 73 8 90 -11z m166 -81
c24 -24 26 -77 3 -102 -20 -22 -70 -23 -95 -1 -25 23 -24 77 4 103 28 25 62
26 88 0z m190 -100 c25 -48 -13 -110 -67 -110 -76 0 -87 119 -13 142 22 7 69
-12 80 -32z m400 -20 c0 -5 -7 -10 -15 -10 -8 0 -15 5 -15 10 0 6 7 10 15 10
8 0 15 -4 15 -10z m184 -72 c8 -14 7 -21 -6 -34 -30 -30 -75 9 -48 42 16 18
39 15 54 -8z m190 -81 c14 -39 -2 -61 -47 -65 -31 -3 -39 1 -49 22 -8 20 -8
32 0 52 10 21 18 25 49 22 31 -2 39 -8 47 -31z m394 1 c-6 -18 -28 -21 -28 -4
0 9 7 16 16 16 9 0 14 -5 12 -12z m192 -82 c0 -8 -5 -18 -11 -22 -14 -8 -33
11 -25 25 10 16 36 13 36 -3z"/>
<path d="M15467 10123 c-11 -10 -8 -61 4 -69 18 -10 27 9 22 44 -5 31 -13 39
-26 25z"/>
<path d="M12694 10069 l-29 -30 41 7 c25 3 50 2 63 -5 33 -18 25 4 -13 32
l-33 26 -29 -30z"/>
<path d="M1302 10062 c-20 -15 -22 -22 -13 -45 9 -24 14 -26 43 -20 43 8 45
10 30 33 -7 11 -12 27 -12 35 0 20 -20 19 -48 -3z"/>
<path d="M15632 10030 c-27 -13 -31 -19 -26 -40 7 -32 4 -30 47 -23 34 5 36 7
30 37 -8 42 -13 44 -51 26z"/>
<path d="M12630 9993 c0 -5 -16 -19 -36 -32 -35 -24 -35 -26 -29 -70 8 -54 10
-57 28 -43 7 7 23 13 35 15 32 5 35 13 17 41 -12 18 -16 37 -12 61 3 19 4 35
1 35 -2 0 -4 -3 -4 -7z"/>
<path d="M15528 9853 c-32 -5 -34 -14 -13 -47 14 -21 19 -23 44 -13 26 10 28
13 19 39 -6 15 -13 27 -16 27 -4 -1 -19 -4 -34 -6z"/>
<path d="M1392 9803 c-20 -4 -22 -9 -16 -36 3 -18 7 -33 8 -34 2 -2 64 18 74
23 6 4 -30 54 -37 53 -3 -1 -16 -4 -29 -6z"/>
<path d="M15657 9614 c-15 -13 -35 -24 -43 -24 -9 0 -13 -5 -10 -12 3 -7 9
-21 12 -31 5 -14 13 -16 43 -11 20 4 37 7 38 8 1 1 -1 23 -5 48 l-7 46 -28
-24z"/>
<path d="M1498 9552 c-22 -13 -26 -22 -21 -42 3 -14 6 -26 7 -27 1 -1 20 1 42
4 l40 5 -19 39 c-10 21 -20 39 -21 38 0 0 -13 -8 -28 -17z"/>
<path d="M15552 9408 c-13 -7 -21 -17 -17 -26 3 -7 5 -20 5 -28 0 -10 8 -12
33 -7 42 8 42 7 27 43 -14 33 -15 34 -48 18z"/>
<path d="M1585 9288 c-11 -6 -21 -12 -23 -14 -2 -1 1 -12 8 -23 7 -14 21 -21
40 -21 34 0 45 13 25 30 -8 7 -15 19 -15 26 0 17 -8 17 -35 2z"/>
<path d="M11218 9253 c-19 -5 -23 -20 -10 -40 5 -8 13 -9 22 -3 8 6 28 10 44
10 28 0 29 0 11 20 -18 20 -32 22 -67 13z"/>
<path d="M1752 9221 c-40 -16 -41 -18 -27 -36 8 -11 15 -30 15 -42 0 -27 0
-27 36 -8 16 8 40 15 53 15 l24 0 -21 23 c-12 13 -22 33 -22 45 0 25 -1 25
-58 3z"/>
<path d="M10952 9213 c-19 -4 -23 -9 -18 -26 4 -12 9 -34 12 -48 6 -27 10 -27
71 -3 6 2 -30 84 -36 83 -3 -1 -17 -4 -29 -6z"/>
<path d="M15650 9153 c-8 -2 -20 -6 -27 -8 -9 -3 -10 -12 -2 -34 9 -25 14 -28
37 -22 15 4 27 13 26 19 -1 7 -2 21 -2 32 -2 20 -6 22 -32 13z"/>
<path d="M1700 9041 c0 -6 5 -13 10 -16 6 -3 10 1 10 9 0 9 -4 16 -10 16 -5 0
-10 -4 -10 -9z"/>
<path d="M15573 8974 c-3 -8 -1 -20 6 -27 8 -8 11 -4 11 16 0 30 -7 35 -17 11z"/>
<path d="M1875 8950 c-3 -5 -15 -10 -27 -10 -14 0 -18 -5 -14 -16 3 -9 6 -22
6 -30 0 -11 9 -13 43 -8 23 4 43 8 45 9 5 4 -33 65 -40 65 -4 0 -10 -4 -13
-10z"/>
<path d="M10175 8870 c-3 -5 1 -10 9 -10 8 0 18 5 21 10 3 6 -1 10 -9 10 -8 0
-18 -4 -21 -10z"/>
<path d="M10140 8707 c0 -19 16 -31 24 -18 3 5 -1 14 -9 21 -12 10 -15 10 -15
-3z"/>
<path d="M10264 8669 l-32 -9 17 -35 c14 -31 19 -35 45 -30 16 3 38 5 49 5 18
0 19 2 5 18 -9 9 -19 27 -22 40 -8 24 -14 25 -62 11z"/>
<path d="M2121 8624 l-33 -15 23 -25 c20 -22 58 -32 71 -19 6 6 -15 75 -22 74
-3 0 -20 -7 -39 -15z"/>
<path d="M2310 8541 c-46 -20 -45 -20 -32 -33 7 -7 12 -20 12 -30 0 -15 3 -17
19 -8 11 5 29 10 40 10 12 0 21 1 21 3 0 1 -6 18 -13 38 l-12 36 -35 -16z"/>
<path d="M10193 8483 c-7 -2 -13 -20 -13 -39 0 -37 14 -43 44 -21 14 10 15 18
7 40 -11 27 -15 30 -38 20z"/>
<path d="M10283 8220 c-20 -8 -22 -12 -11 -35 10 -22 16 -25 37 -20 33 8 33 8
25 39 -7 28 -15 30 -51 16z"/>
<path d="M10231 8033 c-1 -23 4 -33 14 -33 12 0 13 5 7 18 -5 9 -12 24 -15 32
-3 8 -6 0 -6 -17z"/>
<path d="M10378 7967 c-23 -9 -26 -15 -21 -41 8 -40 10 -43 33 -28 11 7 27 12
36 12 12 0 15 6 10 23 -3 12 -6 28 -6 35 0 14 -15 14 -52 -1z"/>
<path d="M10307 7802 c-15 -9 -25 -23 -22 -30 3 -8 5 -20 5 -29 0 -11 7 -13
33 -8 17 4 33 8 35 10 1 1 -4 18 -10 38 l-13 36 -28 -17z"/>
<path d="M10038 7693 c-20 -5 -23 -18 -8 -28 6 -3 10 -15 10 -27 0 -17 2 -18
15 -8 15 13 21 71 8 69 -5 -1 -16 -3 -25 -6z"/>
<path d="M9589 7683 c-2 -14 3 -68 6 -71 2 -2 17 4 33 14 27 15 29 20 19 41
-10 22 -55 34 -58 16z"/>
<path d="M9154 7654 c3 -9 6 -22 6 -31 0 -11 7 -13 33 -8 41 9 41 9 25 34 -16
26 -74 31 -64 5z"/>
<path d="M8734 7635 c-11 -28 3 -42 35 -37 39 5 46 16 25 36 -20 20 -53 21
-60 1z"/>
<path d="M9793 7612 c-25 -13 -30 -21 -23 -32 5 -8 10 -25 10 -37 0 -21 1 -21
33 -8 17 8 30 20 28 27 -2 7 -6 25 -10 40 -6 26 -6 26 -38 10z"/>
<path d="M8290 7599 c0 -13 5 -19 13 -15 6 3 20 9 30 12 27 10 20 24 -13 24
-24 0 -30 -4 -30 -21z"/>
<path d="M8914 7586 l-31 -11 16 -35 c15 -33 18 -35 49 -25 33 9 40 19 22 30
-5 3 -10 15 -10 25 0 26 -10 29 -46 16z"/>
<path d="M8481 7571 c-16 -12 -20 -21 -12 -25 6 -4 11 -18 11 -32 0 -22 3 -24
28 -18 40 10 43 13 32 34 -5 10 -10 28 -10 39 0 26 -17 26 -49 2z"/>
<path d="M10390 7537 c-23 -11 -25 -15 -16 -39 8 -23 14 -26 35 -21 37 8 43
16 35 47 -7 28 -16 30 -54 13z"/>
<path d="M10313 7369 c-16 -6 -23 -16 -23 -36 0 -41 13 -58 30 -38 7 8 19 15
26 15 11 0 13 8 8 28 -9 37 -15 41 -41 31z"/>
<path d="M7260 7230 c0 -35 1 -35 41 -14 25 12 28 18 18 30 -6 8 -22 14 -35
14 -20 0 -24 -5 -24 -30z"/>
<path d="M7217 7123 c-11 -10 -8 -61 4 -69 18 -11 30 11 23 44 -6 31 -14 39
-27 25z"/>
<path d="M10402 7109 c-32 -10 -32 -10 -17 -39 13 -26 20 -29 43 -24 15 4 30
8 34 10 7 5 -13 65 -22 63 -3 0 -20 -5 -38 -10z"/>
<path d="M7404 7035 c-10 -8 -27 -15 -38 -15 -12 0 -16 -5 -12 -16 3 -9 6 -22
6 -30 0 -11 9 -13 43 -8 23 4 43 7 44 8 1 1 -4 18 -11 39 -11 34 -14 36 -32
22z"/>
<path d="M10332 6917 c-11 -13 -6 -57 7 -57 3 0 16 3 28 6 21 6 22 8 7 35 -16
32 -26 36 -42 16z"/>
<path d="M10525 6864 c-10 -8 -29 -14 -42 -14 -26 0 -28 -6 -10 -43 8 -18 17
-25 27 -21 8 4 27 9 43 12 15 2 27 5 27 6 0 0 -6 17 -13 37 -12 34 -14 36 -32
23z"/>
<path d="M7278 6853 c-33 -5 -32 -3 -11 -47 14 -31 19 -34 47 -29 40 8 43 10
28 33 -7 11 -12 27 -12 35 0 8 -6 14 -12 14 -7 -1 -25 -4 -40 -6z"/>
<path d="M10402 6663 c-16 -3 -22 -9 -18 -20 3 -8 9 -26 12 -39 6 -25 11 -24
73 14 8 4 -23 52 -33 51 -6 -1 -21 -4 -34 -6z"/>
<path d="M7378 6579 c-24 -9 -26 -14 -21 -42 8 -41 10 -44 33 -29 11 7 29 12
40 12 23 0 24 6 8 43 -14 29 -19 30 -60 16z"/>
<path d="M7312 6413 c-16 -13 -20 -25 -15 -46 4 -19 10 -26 20 -23 8 3 21 6
29 6 11 0 13 7 8 28 -12 50 -18 55 -42 35z"/>
<path d="M7391 6149 c-15 -6 -21 -14 -17 -25 3 -9 6 -22 6 -30 0 -11 7 -13 28
-8 35 9 33 6 26 42 -7 35 -8 35 -43 21z"/>
<path d="M7497 5901 c-15 -9 -25 -22 -22 -29 3 -8 5 -21 5 -29 0 -12 7 -14 32
-9 17 3 33 8 35 9 2 2 -3 19 -9 38 -13 35 -13 35 -41 20z"/>
<path d="M7577 5633 c-15 -4 -17 -11 -12 -31 9 -34 8 -34 39 -26 28 7 29 8 20
42 -6 22 -12 24 -47 15z"/>
<path d="M7682 5382 c-20 -15 -22 -22 -13 -44 8 -22 14 -25 35 -20 28 8 28 8
20 52 -7 35 -11 36 -42 12z"/>
<path d="M7790 5121 c0 -6 5 -13 10 -16 6 -3 10 1 10 9 0 9 -4 16 -10 16 -5 0
-10 -4 -10 -9z"/>
<path d="M7942 5036 c-16 -8 -21 -17 -18 -31 3 -11 6 -28 6 -38 0 -19 -1 -19
69 20 6 4 -21 63 -28 62 -3 -1 -16 -7 -29 -13z"/>
<path d="M8063 4783 c-7 -3 -13 -10 -13 -18 0 -15 26 -38 38 -33 14 5 -11 55
-25 51z"/>
<path d="M8223 4697 c-28 -10 -32 -14 -26 -36 9 -39 12 -42 33 -31 10 5 30 10
44 10 l25 0 -20 35 c-12 19 -22 34 -22 34 -1 -1 -16 -7 -34 -12z"/>
<path d="M8487 4374 c-16 -8 -27 -20 -25 -25 6 -18 55 -42 70 -36 13 4 14 11
4 41 -12 41 -11 40 -49 20z"/>
<path d="M8675 4290 c-3 -5 -15 -10 -26 -10 -20 0 -26 -15 -9 -25 6 -3 10 -14
10 -24 0 -16 4 -17 39 -8 38 10 38 11 28 44 -10 32 -30 43 -42 23z"/>
</g>
</svg>
